<?xml version="1.0" encoding="UTF-8" standalone="no"?>
<!DOCTYPE svg PUBLIC "-//W3C//DTD SVG 1.1//EN" "http://www.w3.org/Graphics/SVG/1.1/DTD/svg11.dtd">
<svg width="100%" height="100%" viewBox="0 0 869 1090" version="1.1" xmlns="http://www.w3.org/2000/svg" xmlns:xlink="http://www.w3.org/1999/xlink" xml:space="preserve" xmlns:serif="http://www.serif.com/" style="fill-rule:evenodd;clip-rule:evenodd;stroke-linejoin:round;stroke-miterlimit:2;">
    <g id="Layer-1" serif:id="Layer 1">
        <g transform="matrix(1,0,0,1,335.261,720.658)">
            <path d="M0,-352.15C-4.774,-352.152 -5.873,-350.323 -5.164,-344.228C-3.335,-347.033 -1.892,-349.248 0,-352.15M8.591,-294.861C8.073,-294.796 7.555,-294.729 7.037,-294.663L7.037,-288.607C8.698,-288.807 10.358,-289.006 12.676,-289.286C10.825,-291.813 9.708,-293.337 8.591,-294.861M250.723,-287.35C250.177,-287.548 249.631,-287.747 249.085,-287.945C247.853,-285.833 246.384,-283.799 245.627,-281.528C245.503,-281.156 248.516,-279.738 250.723,-278.418L250.723,-287.35ZM25.303,-175.92C28.41,-173.163 31.48,-170.44 34.055,-168.155C33.434,-174.145 29.989,-177.553 25.303,-175.92M38.669,-361.368C38.674,-360.692 38.679,-360.016 38.685,-359.34L45.944,-357.924C45.092,-360.377 44.239,-362.83 43.086,-366.147C40.873,-363.753 39.771,-362.56 38.669,-361.368M218.299,-356.061C216.999,-354.244 215.595,-352.877 215.823,-352.502C217.018,-350.536 218.561,-348.754 220.21,-347.143C220.35,-347.007 223.143,-349.175 223.07,-349.297C221.824,-351.384 220.319,-353.317 218.299,-356.061M157.614,-361.35C159.327,-360.04 160.652,-358.314 162.183,-358.105C163.217,-357.964 165.506,-359.946 165.525,-361.009C165.559,-362.894 164.292,-364.802 163.317,-367.366C161.022,-364.945 159.602,-363.447 157.614,-361.35M105.898,-373.341C103.823,-370.885 102.249,-369.36 101.129,-367.554C100.569,-366.65 100.288,-364.681 100.828,-364.14C103.457,-361.505 106.021,-362.7 108.71,-364.567C111.626,-366.593 109.814,-368.193 108.639,-369.917C107.908,-370.989 107.019,-371.954 105.898,-373.341M214.033,-291.199C212.473,-296.316 211.316,-300.114 209.692,-305.441C205.971,-301.298 203.208,-298.223 199.86,-294.495C205.07,-293.283 208.858,-292.402 214.033,-291.199M109.122,-322.149C106.336,-316.984 104.235,-313.088 101.518,-308.049C105.922,-308.344 109.031,-308.296 112.005,-308.906C112.891,-309.088 114.224,-311.411 113.927,-312.247C112.855,-315.264 111.176,-318.065 109.122,-322.149M41.167,-180.207C40.599,-179.908 40.032,-179.609 39.465,-179.31C43.911,-170.67 48.357,-162.03 52.803,-153.39C53.28,-153.641 53.757,-153.892 54.233,-154.142C52.176,-164.052 48.323,-173.008 41.167,-180.207M51.845,-314.876L49.137,-314.047C48.487,-309.465 47.838,-304.883 47.066,-299.436C52.237,-300.414 55.818,-301.09 60.831,-302.038C57.375,-306.976 54.61,-310.926 51.845,-314.876M150.712,-305.149L150.668,-303.142C154.225,-302.612 157.77,-301.949 161.346,-301.647C162.214,-301.573 164.037,-302.826 163.969,-303.229C163.4,-306.682 162.614,-310.119 161.511,-313.434C161.402,-313.763 158.212,-313.811 157.381,-313.017C154.91,-310.654 152.902,-307.807 150.712,-305.149M-30.631,-272.211C-34.409,-275.907 -37.585,-279.013 -40.76,-282.12C-41.478,-281.84 -42.196,-281.56 -42.914,-281.28C-43.669,-275.851 -44.425,-270.422 -45.181,-264.993C-44.644,-264.743 -44.107,-264.494 -43.57,-264.245C-39.695,-266.63 -35.821,-269.016 -30.631,-272.211M207.964,-134.217C208.531,-134.19 209.107,-134.079 209.662,-134.148C218.625,-135.259 227.57,-136.527 236.551,-137.463C240.784,-137.903 241.989,-140.328 242.36,-144.956C229.603,-144.682 218.952,-139.026 207.964,-134.217M56.755,263.601C57.087,266.147 57.198,267.693 57.5,269.201C58.917,276.284 60.367,283.36 61.854,290.429C62.14,291.784 62.294,293.834 63.137,294.231C64.14,294.704 66.244,294.145 67.081,293.274C67.837,292.486 67.843,290.625 67.628,289.329C67.144,286.421 66.55,283.487 65.579,280.713C63.579,274.998 63.188,268.432 56.755,263.601M161.23,-168.635C161.791,-168.193 162.351,-167.752 162.912,-167.31C171.501,-176.747 180.091,-186.184 188.753,-195.699C186.08,-196.428 183.577,-197.11 181.472,-197.685C174.627,-187.861 167.928,-178.248 161.23,-168.635M43.904,-191.774C54.725,-184.674 60.147,-174.088 65.793,-163.533C66.137,-164.755 66.333,-165.914 65.987,-166.878C63.197,-174.63 60.63,-182.488 57.348,-190.032C54.409,-196.789 51.423,-197.158 43.904,-191.774M4.06,-160.525C4.06,-158.548 3.956,-158.104 4.076,-157.732C6.328,-150.702 8.539,-143.658 10.929,-136.676C11.492,-135.029 12.545,-132.434 13.607,-132.313C15.647,-132.078 18.739,-132.653 19.781,-134.075C21.244,-136.072 22.65,-140.284 21.618,-141.569C16.502,-147.937 10.577,-153.654 4.06,-160.525M182.822,-149.671C183.372,-149.24 183.92,-148.809 184.469,-148.379C195.894,-161.016 210.557,-168.064 226.653,-172.748C223.708,-177.288 221.3,-178.503 216.379,-176.323C205.154,-171.349 195.451,-164.325 186.297,-156.429C184.519,-154.895 183.95,-151.96 182.822,-149.671M79.19,284.49C79.863,284.308 80.536,284.127 81.208,283.944C80.86,279.164 80.574,274.378 80.15,269.604C79.368,260.777 73.338,254.389 69.49,246.99C68.19,244.489 66.22,242.947 63.518,245.132C61.051,247.126 58.842,249.439 56.079,252.023C67.321,254.944 72.575,262.205 74.902,272.317C75.861,276.483 77.733,280.439 79.19,284.49M148.477,278.115C148.972,273.771 149.449,269.675 149.905,265.576C150.563,259.663 151.045,253.856 156.336,249.608C159.843,246.793 162.647,243.102 165.788,239.779C156.154,236.245 151.662,242.377 146.985,248.356C142.18,254.499 142.039,262.031 140.478,269.143C138.764,276.959 140.09,278.533 148.477,278.115M147.474,-210.738C142.409,-210.738 138.79,-210.996 135.22,-210.68C129.277,-210.152 127.609,-207.907 127.487,-202.011C127.313,-193.618 126.809,-185.233 126.625,-176.839C126.591,-175.259 127.403,-173.661 127.824,-172.071C129.04,-173.331 130.749,-174.382 131.385,-175.887C134.208,-182.558 136.491,-189.46 139.426,-196.076C141.456,-200.653 144.23,-204.9 147.474,-210.738M175.144,246.908C162.992,253.756 161.562,264.867 160.393,276.711C159.463,286.118 167.742,288.094 171.818,293.869C175.597,278.484 178.679,263.296 175.144,246.908M237.291,-37.113C237.542,-36.856 237.794,-36.599 238.046,-36.341C240.336,-37.53 242.504,-39.241 244.939,-39.811C252.54,-41.591 257.681,-46.587 262.511,-52.18C264.433,-54.407 266.255,-56.83 268.556,-58.6C275.746,-64.129 283.187,-69.333 290.4,-74.832C291.278,-75.501 292.103,-77.591 291.698,-78.368C289.108,-83.325 286.167,-88.099 283.529,-92.614C276.524,-82.338 270.408,-71.761 262.7,-62.51C255.066,-53.348 245.826,-45.524 237.291,-37.113M164.291,312.762C168.728,307.902 169.767,304.135 166.887,301.501C164.102,298.953 161.027,296.47 157.644,294.886C152.639,292.541 147.279,290.931 142.016,289.167C137.64,287.7 133.268,285.936 128.75,285.24C121.074,284.058 113.424,283.429 105.793,286.746C98.886,289.75 91.297,291.186 84.402,294.211C77.497,297.239 71.464,301.905 68.04,308.937C67.268,310.523 68.052,312.866 68.12,314.86C69.888,314.677 71.793,314.853 73.399,314.243C78.328,312.369 83.136,310.179 88.004,308.143C89.523,307.509 91.224,307.204 92.601,306.356C99.54,302.088 107.019,299.569 115.172,299.987C122.517,300.363 129.903,300.917 137.14,302.155C146.85,303.816 156.368,306.386 164.291,312.762M182.631,201.614C188.326,189.866 179.694,179.225 168.432,174.879C159.969,171.612 151.418,168.731 142.077,167.216C129.6,165.191 117.672,166.379 105.509,167.159C100.879,167.457 96.294,168.423 91.68,169.024C81.315,170.375 72.21,174.906 62.852,179.3C53.688,183.601 49.752,191.46 45.156,199.491C47.737,199.189 50.008,198.439 52.107,197.354C55.491,195.605 58.639,193.365 62.105,191.821C67.992,189.198 74.075,187.021 80.026,184.538C88.521,180.993 96.823,176.909 105.503,173.911C110.067,172.334 115.385,171.607 120.14,172.22C127.471,173.163 134.85,174.946 141.78,177.524C153.5,181.886 165.009,186.85 174.038,196.139C176.25,198.416 179.511,199.675 182.631,201.614M296.77,-78.023C307.369,-89.698 316.854,-100.245 326.459,-110.68C330.073,-114.605 330.099,-117.398 326.244,-121.821C315.782,-133.82 306.156,-146.548 296.158,-158.954C295.684,-159.542 294.813,-159.808 293.778,-160.436C293.778,-159.248 293.684,-158.443 293.792,-157.666C295.196,-147.569 295.307,-137.366 293.552,-127.421C292.093,-119.157 288.783,-111.232 286.592,-103.076C285.996,-100.857 285.699,-97.969 286.624,-96.039C289.32,-90.411 292.704,-85.111 296.77,-78.023M8.872,-82.497C10.054,-86.335 10.709,-88.978 11.685,-91.498C12.918,-94.685 13.631,-98.61 15.932,-100.754C24.989,-109.2 34.515,-117.122 46.497,-121.388C53.483,-123.875 60.478,-126.44 67.192,-129.565C78.27,-134.721 90.34,-134.553 101.972,-136.676C113.524,-138.784 124.567,-135.479 135.88,-133.519C149.899,-131.09 160.541,-124.105 170.208,-114.272C175.252,-117.67 173.256,-122.81 172.292,-126.827C170.693,-133.485 164.834,-136.115 158.89,-138.907C145.267,-145.305 131.021,-147.853 116.188,-147.584C96.588,-147.229 78.584,-140.567 61.085,-132.545C52.448,-128.585 44.141,-123.839 35.939,-119.014C30.595,-115.869 25.806,-111.793 20.57,-108.444C18.717,-107.26 16.277,-106.993 14.105,-106.307C14.489,-108.53 14.141,-111.334 15.372,-112.883C25.829,-126.034 39.555,-134.456 55.372,-139.749C58.258,-140.714 60.946,-142.274 63.795,-143.591C60.763,-148.638 58.067,-149.086 54.027,-145.914C53.131,-145.21 52.062,-144.716 51.042,-144.184C45.508,-141.292 39.847,-138.62 34.461,-135.475C29.999,-132.87 25.858,-129.715 20.842,-126.305C19.227,-117.195 17.068,-115.313 11.306,-119.233C8.13,-110.176 4.96,-101.135 1.64,-91.665C3.227,-89.653 5.526,-86.739 8.872,-82.497M-144.091,-138.079C-133.149,-125.67 -123.858,-115.131 -114.141,-104.109C-105.456,-115.461 -97.273,-126.156 -88.975,-137.003C-94.059,-139.67 -97.75,-142.925 -98.994,-148.487C-101.532,-159.837 -98.085,-170.42 -95.084,-181.057C-94.646,-182.611 -93.351,-183.924 -91.934,-186.172C-93.522,-185.71 -93.928,-185.713 -94.14,-185.512C-110.391,-170.101 -126.626,-154.672 -144.091,-138.079M155.454,326.91C147.863,320.639 139.743,316.305 130.056,316.284C122.539,316.268 114.983,317.65 107.51,317.238C97.103,316.665 89.185,322.401 80.72,326.591C74.783,329.529 74.885,333.592 80.264,337.535C82.5,339.175 84.983,340.684 87.585,341.58C95.712,344.379 103.885,347.091 112.163,349.392C120.237,351.637 128.061,349.06 135.286,346.043C144.039,342.387 149.968,335.036 155.454,326.91M49.812,238.158C51.672,237.1 53.519,235.625 55.621,234.962C58.286,234.122 61.58,232.84 63.856,233.707C68.695,235.551 71.648,234.338 74.428,230.412C80.115,222.384 85.699,214.278 94.104,208.625C99.557,204.958 104.333,199.892 111.791,201.247C117.571,202.298 122.979,203.597 127.626,208.093C134.915,215.143 143.023,221.353 150.88,227.803C151.861,228.606 153.417,229.033 154.718,229.061C158.536,229.145 162.377,228.683 166.177,228.931C169.184,229.126 174.008,231.414 174.754,230.39C176.603,227.853 176.809,223.977 177.188,220.586C177.346,219.171 176.653,217.28 175.692,216.179C163.493,202.199 147.195,196.216 129.478,194.719C118.607,193.8 107.51,195.522 96.517,196.111C95.376,196.172 94.23,196.504 93.127,196.844C78.025,201.495 64.71,209.505 52.349,219.111C47.525,222.859 43.576,230.752 49.812,238.158M123.779,275.744C126.789,268.183 129.304,261.09 132.436,254.281C134.288,250.259 137.375,246.817 139.374,242.847C140.161,241.284 140.282,238.446 139.363,237.124C134.429,230.031 128.157,224.547 120.859,219.552C111.448,213.11 106.479,215.79 97.347,222.163C94.254,224.321 92.196,227.91 89.453,230.63C83.97,236.063 80.45,241.795 85.199,249.524C85.775,250.462 85.694,251.783 86.032,252.891C88.292,260.282 90.71,267.628 92.808,275.064C93.764,278.457 96.065,278.782 98.483,277.762C107.023,274.158 115.766,274.599 123.779,275.744M-5.255,-149.664C-27.27,-136.965 -43.585,-55.148 -29.118,-28.909C-26.173,-32.51 -23.599,-36.096 -20.57,-39.244C-17.043,-42.909 -13.072,-46.142 -9.38,-49.652C-6.336,-52.545 -1.078,-55.429 -0.891,-58.562C-0.375,-67.228 -1.997,-76.021 -2.851,-85.635C-5.303,-83.884 -6.284,-82.701 -7.465,-82.446C-9.57,-81.991 -13.318,-81.35 -13.69,-82.108C-14.851,-84.47 -17.782,-86.414 -14.985,-90.37C-10.178,-97.171 -6.239,-104.68 -2.666,-112.237C3.392,-125.051 0.086,-137.429 -5.255,-149.664M287.087,-227.705C287.336,-227.827 287.586,-227.949 287.835,-228.071C286.176,-232.005 285.495,-236.939 282.68,-239.692C273.236,-248.933 263.382,-257.907 250.751,-262.844C247.363,-264.168 243.811,-265.067 240.38,-266.293C230.005,-269.999 219.74,-274.036 209.268,-277.441C199.391,-280.652 189.378,-283.518 179.291,-285.979C172.24,-287.699 164.986,-288.669 157.777,-289.639C144.364,-291.444 130.948,-294.01 117.478,-294.407C101.612,-294.875 85.662,-293.725 69.801,-292.565C63.095,-292.074 56.449,-290.032 49.906,-288.223C40.687,-285.675 31.565,-282.768 22.446,-279.874C8.48,-275.441 -5.965,-272.031 -19.229,-266.027C-30.07,-261.119 -39.797,-253.475 -49.412,-246.236C-55.418,-241.714 -60.491,-235.871 -65.621,-230.289C-69.385,-226.192 -73.925,-222.124 -72.095,-215.085C-71.243,-215.516 -70.612,-215.711 -70.134,-216.096C-55.417,-227.955 -40.421,-239.492 -26.145,-251.86C-19.608,-257.523 -11.887,-260.135 -4.344,-263.203C4.851,-266.943 14.782,-268.915 23.878,-272.846C33.27,-276.905 42.831,-279.924 52.855,-281.442C68.751,-283.85 84.681,-286.047 100.63,-288.069C104.37,-288.543 108.247,-288.042 112.054,-287.849C122.637,-287.311 133.249,-287.041 143.788,-286.022C154.778,-284.96 165.669,-282.899 176.652,-281.718C196.351,-279.601 214.433,-272.126 232.556,-264.959C240.06,-261.992 247.004,-257.531 254.025,-253.443C259.114,-250.479 264.17,-247.34 268.77,-243.687C275.108,-238.652 281.002,-233.059 287.087,-227.705M333.783,-120.115C336.332,-124.101 338.517,-127.205 340.383,-130.49C346.995,-142.129 353.5,-153.829 360.04,-165.508C361.77,-168.599 361.017,-170.674 358.153,-172.999C348.62,-180.735 339.397,-188.856 330.038,-196.807C321.696,-203.895 313.331,-210.954 304.968,-218.032C297.937,-209.355 297.958,-209.354 297.462,-198.899C297.298,-195.457 297.423,-191.915 296.61,-188.616C295.942,-185.905 294.558,-183.037 292.657,-181.026C287.688,-175.772 287.604,-175.486 292.365,-169.926C300.36,-160.59 308.217,-151.135 316.079,-141.685C321.799,-134.808 327.432,-127.859 333.783,-120.115M135.341,-50.556C131.82,-50.854 128.7,-51.256 125.57,-51.348C121.391,-51.471 116.991,-52.785 113.462,-48.838C112.958,-48.274 110.036,-49.081 108.928,-50.049C107.5,-51.297 106.964,-53.506 105.707,-55.022C102.498,-58.89 99.709,-63.59 95.616,-66.111C91.251,-68.798 85.657,-70.085 80.459,-70.621C76.638,-71.015 71.733,-70.35 68.828,-68.152C63.185,-63.884 56.223,-60.806 52.907,-53.735C52.475,-52.813 49.057,-52.118 48.349,-52.766C47.222,-53.799 46.816,-56.058 46.848,-57.784C46.875,-59.237 47.959,-60.671 48.723,-62.46C25.187,-58.774 -20.809,-31.216 -27.033,-8.459C-23.667,-10.57 -20.873,-12.928 -17.651,-14.223C-10.128,-17.244 -2.508,-20.13 5.274,-22.367C13.196,-24.644 21.342,-26.168 29.424,-27.854C36.829,-29.399 44.304,-30.608 51.704,-32.169C61.125,-34.157 69.532,-39.445 79.967,-38.596C87.934,-37.948 95.213,-36.131 102.124,-32.714C107.822,-29.897 113.222,-27.501 119.424,-30.865C121.292,-31.878 123.07,-33.099 125.022,-33.902C131.068,-36.392 135.664,-43.578 135.341,-50.556M-79.245,-150.745C-77.986,-154.054 -77.119,-156.696 -75.992,-159.224C-73.306,-165.251 -71.52,-172.026 -67.554,-177.071C-54.243,-194.003 -40.033,-210.203 -22.24,-222.762C-13.057,-229.243 -4.459,-236.835 5.412,-241.992C20.974,-250.122 37.57,-255.924 55.218,-258.308C63.754,-259.462 72.095,-262.544 80.633,-263.102C95.171,-264.053 109.794,-263.869 124.381,-263.834C133.001,-263.814 141.768,-264.033 150.206,-262.597C163.488,-260.336 176.671,-257.212 189.664,-253.612C199.486,-250.89 209.416,-247.781 218.453,-243.184C231.899,-236.345 244.936,-228.858 256.171,-218.134C264.58,-210.11 274.038,-203.23 280.764,-193.515C281.401,-192.597 282.488,-191.99 283.366,-191.238L284.59,-191.986C284.049,-198.314 283.286,-205.003 279.031,-209.867C272.111,-217.777 264.51,-225.172 256.609,-232.116C251.175,-236.891 245.196,-241.526 238.669,-244.473C226.369,-250.027 213.719,-255.051 200.807,-258.943C185.61,-263.523 170.138,-267.686 154.488,-270.113C141.684,-272.098 128.404,-272.106 115.41,-271.466C100.91,-270.752 86.506,-267.074 72.039,-266.935C52.524,-266.747 34.229,-261.893 16.149,-255.801C-1.937,-249.709 -17.223,-238.209 -32.719,-227.546C-42.008,-221.155 -49.769,-212.521 -58.117,-204.788C-70.928,-192.921 -81.324,-179.451 -85.714,-162.125C-85.986,-161.053 -86.543,-159.544 -86.068,-158.882C-84.192,-156.268 -81.958,-153.911 -79.245,-150.745M-65.809,-256.319C-76.238,-249.419 -86.607,-242.984 -96.521,-235.912C-118.684,-220.103 -140.585,-203.926 -162.701,-188.048C-165.104,-186.323 -165.462,-184.834 -164.574,-182.235C-159.736,-168.079 -153.307,-154.735 -144.689,-142.184C-144.058,-142.61 -143.459,-142.887 -143.025,-143.328C-135.025,-151.451 -127.055,-159.604 -119.059,-167.73C-113.486,-173.394 -108.187,-179.378 -102.203,-184.569C-96.836,-189.224 -91.931,-193.849 -90.249,-201.079C-88.906,-206.85 -87.211,-212.538 -85.854,-218.306C-83.424,-228.64 -78.411,-237.331 -69.871,-243.778C-65.538,-247.05 -63.953,-251.067 -65.809,-256.319M291.228,-275.939C291.228,-267.641 291.165,-260.218 291.302,-252.799C291.322,-251.795 292.142,-250.57 292.951,-249.853C297.639,-245.699 299.545,-240.254 301.037,-234.372C302.346,-229.204 303.318,-223.917 308.041,-220.041C321.9,-208.665 335.415,-196.87 349.119,-185.305C353.733,-181.411 358.512,-177.713 363.427,-173.755C364.091,-174.818 364.788,-175.572 365.083,-176.459C369.142,-188.63 373.598,-200.694 377.018,-213.044C379.727,-222.822 379.071,-222.837 370.327,-227.992C357.174,-235.746 344.138,-243.695 331.084,-251.615C318.055,-259.52 305.065,-267.49 291.228,-275.939M380.126,-226.395C384.293,-243.553 386.247,-260.086 386.514,-276.833C386.583,-281.167 385.904,-283.943 380.223,-285.825C360.226,-292.447 340.684,-300.442 320.962,-307.899C312.802,-310.984 304.625,-314.023 295.96,-317.268C293.629,-311.352 290.665,-306.162 289.659,-300.616C288.68,-295.218 289.519,-289.441 289.979,-283.865C290.103,-282.367 291.426,-280.459 292.753,-279.646C313.138,-267.166 333.628,-254.858 354.064,-242.461C362.541,-237.318 370.947,-232.059 380.126,-226.395M-68.004,-300.629C-70.857,-299.201 -73.066,-298.123 -75.252,-296.998C-87.36,-290.764 -99.402,-284.4 -111.579,-278.305C-133.228,-267.469 -154.955,-256.789 -176.658,-246.062C-179.464,-244.675 -181.112,-242.796 -180.35,-239.397C-177.646,-227.336 -175.1,-215.238 -172.292,-203.201C-171.379,-199.294 -169.845,-195.532 -168.428,-191.192C-165.063,-193.326 -162.172,-194.953 -159.503,-196.886C-141.625,-209.835 -123.784,-222.834 -105.956,-235.851C-99.654,-240.451 -93.533,-245.308 -87.123,-249.75C-81.139,-253.897 -74.798,-257.527 -68.807,-261.664C-67.409,-262.629 -65.89,-264.757 -65.951,-266.289C-66.397,-277.443 -67.233,-288.582 -68.004,-300.629M-181.365,-250.039C-179.133,-251.057 -177.937,-251.565 -176.773,-252.138C-142.661,-268.961 -108.615,-285.922 -74.371,-302.473C-69.424,-304.864 -66.982,-307.906 -66.322,-313.045C-65.68,-318.046 -64.94,-323.029 -68.505,-327.313C-69.416,-328.407 -70.749,-329.15 -71.883,-330.06C-73.964,-331.731 -76.042,-333.406 -79.184,-335.933C-86.048,-334.347 -94.785,-332.389 -103.492,-330.301C-115.086,-327.521 -126.614,-324.452 -138.248,-321.854C-151.514,-318.891 -164.887,-316.411 -178.157,-313.463C-180.439,-312.956 -183.629,-312.613 -183.578,-308.823C-183.398,-295.433 -183.43,-282.038 -183.071,-268.653C-182.911,-262.713 -182.009,-256.794 -181.365,-250.039M64.54,-24.574C56.419,-23.374 47.25,-22.287 38.192,-20.598C30.722,-19.205 23.356,-17.203 16.007,-15.235C14.203,-14.752 12.759,-12.897 10.956,-12.446C5.601,-11.108 -0.059,-10.742 -5.214,-8.91C-12.165,-6.441 -19.425,-3.84 -20.885,5.21C-21.225,7.314 -23.167,9.144 -24.303,11.14C-26.566,15.117 -30.111,18.918 -30.761,23.154C-32.558,34.862 -33.147,46.756 -34.185,58.578C-34.29,59.77 -34.199,60.979 -34.199,63.052C-31.722,60.937 -29.671,59.832 -28.546,58.118C-23.134,49.867 -15.263,44.628 -6.933,39.926C-0.125,36.082 6.544,31.87 13.692,28.788C20.277,25.95 27.463,24.536 34.293,22.227C38.035,20.963 41.547,19.033 45.239,17.6C52.446,14.805 59.559,11.581 66.997,9.625C72.207,8.256 78.221,7.338 83.304,8.573C100.152,12.667 116.693,18.002 133.443,22.526C148.379,26.56 149.492,25.332 146.071,10.263C145.998,9.938 146.019,9.581 145.892,9.283C144.21,5.333 142.428,1.46 137.383,0.108C137.973,2.912 139.366,5.343 140.253,7.946C140.84,9.672 140.705,11.642 140.893,13.504C139.198,13.625 136.711,14.527 135.935,13.741C130.817,8.559 125.241,3.295 127.039,-5.084C127.818,-8.714 126.554,-10.78 123.534,-12.373C121.926,-13.221 120.435,-14.3 118.93,-15.332C110.342,-21.223 100.838,-24.978 90.652,-26.789C88.331,-27.201 85.411,-26.395 83.283,-25.216C80.455,-23.65 78.323,-20.854 75.535,-19.181C73.301,-17.842 70.303,-16.39 68.089,-16.903C66.672,-17.233 66.063,-21.045 64.54,-24.574M93.849,-308.205C94.849,-317.668 100.344,-324.762 105.931,-331.704C106.837,-332.83 109.729,-333.52 111.011,-332.924C113.281,-331.869 115.04,-329.693 116.978,-327.948C121.447,-323.925 121.259,-318.072 122.625,-312.9C123.498,-309.589 125.073,-308.181 128.402,-307.954C131.375,-307.752 134.303,-306.71 137.265,-306.642C138.765,-306.608 141.135,-307.512 141.679,-308.667C145.402,-316.572 151.619,-321.576 159.058,-325.771C162.519,-327.722 164.833,-326.817 166.197,-324.335C168.973,-319.285 172.78,-313.892 172.968,-308.528C173.303,-298.975 177.987,-296.209 186.154,-296.008C186.647,-295.996 187.25,-295.631 187.611,-295.812C189.496,-296.759 192.349,-297.397 192.993,-298.928C196.406,-307.059 203.275,-311.318 210.515,-314.911C212.126,-315.712 215.959,-314.267 217.461,-312.645C222.177,-307.55 222.444,-300.821 222.485,-294.278C222.511,-290.039 223.869,-287.269 228.402,-286.574C230.188,-286.3 231.87,-285.31 233.655,-285.082C234.773,-284.939 236.348,-285.241 237.109,-285.975C240.422,-289.171 243.526,-292.585 246.68,-295.944C250.663,-300.185 255.457,-299.555 257.121,-293.975C258.587,-289.054 259.435,-283.758 259.394,-278.637C259.356,-274.034 261.157,-271.5 265.055,-270.171C269.013,-268.821 269.928,-272.301 271.607,-274.667C273.415,-277.215 275.127,-280.971 277.596,-281.668C282.444,-283.035 282.491,-285.995 282.677,-289.754C283.301,-302.36 278.379,-313.335 272.805,-324.118C268.516,-332.413 265.478,-332.945 258.264,-326.883C257.883,-326.564 257.584,-326.15 257.211,-325.819C253.382,-322.431 249.379,-323.524 247.502,-328.308C246.06,-331.985 244.795,-335.854 242.614,-339.068C241.437,-340.802 238.043,-342.706 236.443,-342.169C231.165,-340.398 226.191,-337.66 221.208,-335.085C215.483,-332.127 211.835,-333.412 210.005,-339.271C209.81,-339.897 209.468,-340.482 209.157,-341.067C207.074,-344.979 204.761,-348.787 202.941,-352.818C199.857,-359.649 195.377,-362.495 188.275,-360.189C180.8,-357.762 173.407,-354.765 168.571,-347.781C165.728,-343.674 162.376,-343.252 158.526,-346.24C151.484,-351.705 144.69,-357.509 137.431,-362.661C135.566,-363.984 131.919,-364.399 129.833,-363.504C123.949,-360.978 118.243,-357.877 112.843,-354.415C103.294,-348.293 101.985,-348.149 93.627,-355.265C92.242,-356.444 91.1,-357.903 89.783,-359.167C82.343,-366.303 76.359,-368.062 68.376,-362.907C61.16,-358.247 54.77,-352.069 48.784,-345.823C44.956,-341.828 43.468,-340.579 38.375,-343.22C32.417,-346.309 26.592,-349.654 20.638,-352.749C16.75,-354.77 13.518,-353.428 10.999,-350.174C7.76,-345.989 4.473,-341.823 1.524,-337.436C-0.407,-334.564 -2.76,-333.291 -6.035,-334.109C-10.383,-335.194 -14.757,-336.271 -18.973,-337.765C-25.506,-340.079 -31.047,-338.918 -35.519,-333.485C-42.865,-324.561 -50.081,-315.53 -57.306,-306.506C-59.535,-303.722 -58.639,-299.02 -55.842,-298.215C-51.356,-296.924 -50.606,-295.204 -52.123,-290.842C-53.504,-286.87 -54.879,-282.84 -55.619,-278.722C-56.024,-276.465 -55.111,-273.972 -54.792,-271.586C-54.307,-271.605 -53.823,-271.625 -53.339,-271.644C-52.901,-274.035 -52.445,-276.423 -52.028,-278.817C-50.901,-285.287 -49.283,-291.618 -43.939,-295.969C-42.666,-297.005 -39.264,-297.578 -38.55,-296.799C-34.148,-291.995 -30.128,-286.824 -26.206,-281.607C-24.044,-278.731 -21.906,-276.705 -17.979,-278.176C-15.233,-279.205 -12.416,-280.2 -9.542,-280.682C-6.58,-281.177 -5.852,-282.275 -5.404,-285.437C-4.187,-294.031 -4.194,-303.117 1.649,-310.465C4.976,-314.649 8.462,-314.652 11.593,-310.341C14.783,-305.948 18.521,-301.812 20.904,-297.009C24.04,-290.688 28.155,-294.158 32.256,-294.7C36.512,-295.262 36.632,-298.341 37.375,-301.477C38.782,-307.404 39.528,-313.819 42.42,-318.983C46.582,-326.41 49.989,-328.713 54.93,-324.323C58.785,-320.898 61.647,-316.382 65.28,-312.674C68.056,-309.841 71.236,-305.556 74.431,-305.377C80.706,-305.025 87.117,-307.082 93.849,-308.205M171.39,-85.609C166.846,-81.884 164.946,-76.793 164.538,-70.009C163.85,-58.595 165.27,-47.428 168.639,-36.541C173.262,-21.608 180.485,-8.994 196.391,-3.021C198.907,-2.075 200.182,3.469 200.932,7.113C201.192,8.375 198.387,10.794 196.513,11.854C193.078,13.798 190.733,15.837 189.471,20.049C186.501,29.966 189.544,36.945 197.675,42.697C202.169,45.875 202.204,48.708 198.063,52.421C196.045,54.231 193.083,54.938 190.779,56.487C182.872,61.804 180.777,70.737 178.669,78.919C176.143,88.727 175.037,99.031 174.484,109.183C173.956,118.895 174.542,128.722 175.39,138.433C175.855,143.748 177.576,149.029 179.305,154.131C180.376,157.29 182.126,160.425 184.285,162.965C187.875,167.188 192.512,170.566 195.847,174.955C200.519,181.1 204.681,187.893 202.689,196.174C201.865,199.6 199.325,202.587 198.294,205.995C195.154,216.382 192.194,226.831 189.532,237.35C188.517,241.355 188.501,245.613 188.031,249.756C188.675,250.019 189.319,250.282 189.963,250.546C193.823,246.378 198.308,242.625 201.401,237.95C206.629,230.045 211.33,221.733 215.601,213.266C220.419,203.715 224.55,193.814 228.901,184.032C229.634,182.383 229.81,180.488 230.516,178.823C233.9,170.847 237.551,162.979 240.739,154.928C242.051,151.611 242.37,147.911 243.259,144.415C245.61,135.176 249.013,126.077 250.188,116.696C252.081,101.579 252.512,86.279 253.58,71.058C253.844,67.275 254.758,63.435 254.362,59.73C253.504,51.71 252.198,43.721 250.705,35.788C248.043,21.649 245.313,7.517 242.225,-6.532C239.571,-18.608 233.517,-28.844 222.535,-34.998C208.593,-42.811 200.169,-55.494 191.433,-68.03C188.081,-72.84 184.775,-77.683 181.448,-82.511C180.829,-82.492 180.209,-82.474 179.59,-82.455C178.444,-78.626 177.085,-74.844 176.218,-70.952C175.526,-67.849 173.466,-66.419 170.94,-67.15C169.809,-67.477 168.746,-70.552 168.894,-72.272C169.245,-76.325 170.341,-80.313 171.39,-85.609M60.529,159.208C70.571,157.152 79.94,155.261 89.296,153.302C91.885,152.76 94.402,151.644 97.004,151.431C115.315,149.927 133.598,150.904 151.865,152.394C157.713,152.871 158.595,152.084 158.58,146.33C158.534,129.65 158.465,112.97 158.516,96.289C158.527,92.989 158.748,89.638 159.367,86.404C160.543,80.248 162.177,74.181 163.436,68.039C164.647,62.135 167.365,57.996 173.372,55.524C177.132,53.977 182.001,51.866 181.433,46.059C180.989,41.525 179.981,37.023 179.845,32.489C179.619,24.868 180.401,17.314 185.02,10.843C186.872,8.249 186.628,6.324 184.105,4.615C177.172,-0.078 171.585,-5.974 167.181,-13.138C154.287,-34.109 145.695,-55.932 153.613,-80.971C155.583,-87.201 158.727,-92.946 164.376,-96.962C160.57,-104.241 153.267,-107.248 146.571,-110.357C129.778,-118.154 112.109,-119.167 94.234,-114.53C82.432,-111.468 70.529,-108.548 59.092,-104.403C50.605,-101.328 42.428,-96.96 34.803,-92.088C29.09,-88.438 24.541,-82.996 19.357,-78.485C13.458,-73.353 13.402,-73.417 7.824,-78.467C8.4,-73.512 8.976,-68.558 9.528,-63.798C23.401,-68.108 36.721,-72.296 50.085,-76.338C51.77,-76.848 53.689,-76.561 55.497,-76.689C58.859,-76.927 62.338,-76.73 65.558,-77.544C75.022,-79.937 84.364,-82.043 93.38,-76.232C99.017,-72.598 104.705,-69.033 110.207,-65.202C119.37,-58.82 129.632,-58.414 140.152,-59.398C145.283,-59.879 147.659,-57.73 146.956,-52.557C145.919,-44.935 142.499,-38.328 137.252,-32.872C133.548,-29.02 129.161,-25.825 124.733,-22.043C128.244,-19.704 131.945,-17.544 135.296,-14.935C140.059,-11.229 145.368,-7.807 148.954,-3.123C152.443,1.433 154.136,7.392 156.474,12.798C161.615,24.685 156.154,33.825 143.119,35.368C142.039,35.495 141.008,36.042 139.615,36.509C140.389,38.005 141.237,39.095 141.534,40.318C142.526,44.407 144.767,48.887 143.888,52.591C142.079,60.214 135.833,64.809 128.392,66.269C117.356,68.433 106.093,69.567 94.888,67.157C89.892,66.082 85.049,64.303 80.064,63.164C78.676,62.848 75.946,63.278 75.666,64.041C72.872,71.628 65.794,74.228 60.027,78.513C55.449,81.914 47.533,82.497 46.845,89.158C46.24,95.01 48.22,101.212 49.522,107.157C51.742,117.289 54.501,127.303 56.696,137.438C58.272,144.712 59.298,152.103 60.529,159.208M148.16,-472.729C147.226,-473.313 146.483,-474.002 145.607,-474.291C137.969,-476.811 133.404,-482.413 129.375,-489.086C125.937,-494.781 121.365,-499.793 116.898,-505.625C114.947,-503.147 113.188,-501.527 112.178,-499.529C105.697,-486.698 95.165,-477.671 83.972,-469.301C76.971,-464.066 69.435,-459.517 62.651,-454.028C54.393,-447.345 48.989,-438.716 47.849,-427.82C47.679,-426.196 46.821,-424.629 46.741,-423.013C46.508,-418.265 45.728,-413.357 46.603,-408.788C47.822,-402.424 52.976,-400.918 58.113,-404.629C59.045,-405.303 60.019,-405.918 62.239,-407.41C62.986,-404.726 64.375,-402.473 63.961,-400.623C63.22,-397.3 61.376,-394.227 60.028,-391.035C57.264,-384.485 51.186,-382.284 44.755,-379.956C45.638,-378.309 46.229,-376.979 47.016,-375.775C55.043,-363.483 54.234,-365.851 63.431,-372.792C70.264,-377.947 77.207,-380.613 85.305,-375.317C87.337,-373.987 89.616,-373.608 91.94,-376.022C95.489,-379.709 99.685,-382.765 103.474,-386.233C106.455,-388.961 108.857,-388.504 110.752,-385.182C112.061,-382.889 113.054,-380.415 114.181,-378.019C117.394,-371.188 120.446,-369.895 127.743,-372.179C133.808,-374.077 139.631,-375.94 145.239,-370.274C146.625,-368.873 151.366,-369.072 153.368,-370.375C157.005,-372.741 159.812,-376.424 162.842,-379.673C165.825,-382.87 170.151,-382.233 171.853,-378.2C172.427,-376.838 173.013,-375.463 173.399,-374.042C175.545,-366.127 176.134,-365.701 184.046,-366.937C185.686,-367.193 187.562,-367.179 188.886,-368.002C195.826,-372.31 201.621,-368.39 205.61,-364.095C209.72,-359.671 212.396,-360.896 216.286,-363.164C226.25,-368.974 228.478,-368.228 231.083,-357.325C232.052,-353.268 233.827,-353.114 237.29,-353.221C239.93,-353.303 243.469,-352.491 245.111,-350.702C248.279,-347.251 250.753,-347.578 254.046,-349.991C259.957,-354.32 262.564,-353.174 264.551,-345.907C264.915,-344.58 266.418,-342.619 267.452,-342.584C272.112,-342.426 273.649,-338.567 276.164,-335.92C278.072,-333.91 279.69,-331.625 281.602,-329.258C283.966,-331.176 285.7,-333.601 287.935,-334.223C297.825,-336.972 299.457,-336.418 305.977,-328.596C307.147,-327.192 307.625,-324.515 307.178,-322.737C306.933,-321.756 304.105,-321.415 302.435,-320.804C301.759,-320.557 301.065,-320.362 299.19,-319.762C328.869,-308.544 357.375,-297.768 386.586,-286.725C385.761,-308.199 385.196,-329.043 379.774,-349.802C360.805,-351.328 342.256,-352.717 323.728,-354.34C305.319,-355.952 286.726,-355.963 268.478,-359.061C268.542,-359.876 268.607,-360.691 268.671,-361.505C305.234,-360.485 341.656,-355.858 378.576,-354.923C369.704,-389.012 358.527,-413.868 351.145,-424.792C347.035,-424.28 343.1,-424.042 339.273,-423.273C317.996,-418.999 296.75,-414.568 275.475,-410.293C273.871,-409.971 272.108,-410.437 270.419,-410.536C270.416,-411.289 270.413,-412.041 270.409,-412.794C283.313,-415.683 296.195,-418.683 309.129,-421.431C322.049,-424.175 335.023,-426.666 348.79,-429.433C339.473,-445.76 329.727,-460.092 317.809,-472.953C315.511,-475.433 313.972,-475.587 311.083,-474.218C294.452,-466.341 277.729,-458.658 260.994,-451.006C258.89,-450.045 256.527,-449.656 254.284,-449.002C253.994,-449.698 253.705,-450.395 253.415,-451.092C272.253,-461.415 292.293,-469.421 311.537,-478.763C311.172,-479.781 311.151,-480.183 310.939,-480.386C300.911,-489.997 290.932,-499.664 280.704,-509.057C279.836,-509.854 276.82,-509.443 275.59,-508.531C267.047,-502.192 258.725,-495.558 250.308,-489.049C243.97,-484.148 237.597,-479.293 231.24,-474.418L229.526,-476.035C230.854,-477.628 231.961,-479.493 233.544,-480.77C243.374,-488.7 253.32,-496.485 263.205,-504.347C266.795,-507.202 270.325,-510.134 274.75,-513.739C263.712,-521.252 253.412,-528.262 243.034,-535.325C230.355,-523.224 222.358,-507.836 209.551,-496.883C208.932,-497.403 208.312,-497.923 207.692,-498.444C217.807,-511.23 227.923,-524.016 238.016,-536.774C237.196,-537.559 236.897,-538.029 236.473,-538.223C226.399,-542.828 216.354,-547.504 206.155,-551.815C205.229,-552.206 202.717,-550.566 201.941,-549.271C199.56,-545.295 197.789,-540.958 195.522,-536.905C194.578,-535.215 192.984,-533.889 191.685,-532.397C191.133,-532.724 190.582,-533.05 190.03,-533.377C191.102,-541.055 197.528,-546.705 199.478,-554.534C190.918,-557.275 182.654,-560.068 174.296,-562.546C168.93,-564.136 163.45,-565.369 157.973,-566.547C155.401,-567.101 152.516,-567.672 151.719,-563.781C150.289,-556.799 148.944,-549.795 147.302,-542.861C146.243,-538.387 144.717,-534.024 143.401,-529.61C142.672,-529.802 141.945,-529.995 141.216,-530.187C142.019,-542.749 146.582,-554.738 148.092,-567.588C146.308,-568.028 144.586,-568.681 142.819,-568.85C134.726,-569.623 126.535,-569.756 118.547,-571.107C112.187,-572.182 111.624,-571.463 111.582,-564.783C111.572,-563.12 110.94,-561.462 110.594,-559.802C110.09,-559.876 109.586,-559.95 109.082,-560.024C108.608,-563.839 108.134,-567.654 107.551,-572.349C93.333,-571.485 79.473,-570.644 65.156,-569.774C69.445,-550.921 73.481,-533.179 77.518,-515.438C76.896,-515.09 76.273,-514.743 75.651,-514.396C74.785,-515.447 73.443,-516.373 73.127,-517.569C70.16,-528.811 67.372,-540.1 64.524,-551.374C63.073,-557.118 61.606,-562.859 60.047,-568.996C44.614,-565.995 29.566,-564.146 14.897,-557.845C17.999,-552.273 20.782,-547.22 23.612,-542.193C31.677,-527.871 39.796,-513.579 47.761,-499.201C48.334,-498.167 47.836,-496.54 47.836,-495.188C47.405,-495.074 46.975,-494.96 46.543,-494.846C45.137,-496.82 43.561,-498.696 42.352,-500.785C32.269,-518.187 22.194,-535.593 12.276,-553.089C10.579,-556.084 8.955,-557.055 5.612,-555.595C-3.522,-551.606 -12.875,-548.107 -21.941,-543.975C-26.773,-541.774 -31.191,-538.663 -36.179,-535.738C-28.814,-528.078 -22.169,-521.144 -15.499,-514.236C-4.876,-503.236 5.807,-492.294 16.346,-481.214C17.77,-479.717 18.506,-477.566 19.56,-475.717C19.144,-475.324 18.728,-474.931 18.311,-474.538C17.147,-475.172 15.73,-475.565 14.858,-476.478C-2.265,-494.402 -19.425,-512.294 -36.294,-530.455C-38.956,-533.32 -40.81,-533.623 -43.785,-531.632C-49.402,-527.875 -55.215,-524.404 -60.752,-520.535C-66.948,-516.205 -72.928,-511.566 -79.798,-506.471C-78.269,-505.461 -77.589,-504.971 -76.872,-504.545C-64.728,-497.323 -52.555,-490.15 -40.449,-482.864C-37.63,-481.167 -34.949,-479.201 -32.402,-477.115C-31.764,-476.592 -31.894,-475.13 -31.671,-474.099C-32.727,-473.989 -33.828,-473.648 -34.827,-473.838C-35.755,-474.016 -36.588,-474.739 -37.441,-475.259C-50.628,-483.293 -63.973,-491.084 -76.913,-499.498C-81.827,-502.693 -85.495,-502.564 -89.399,-498.579C-90.097,-497.867 -90.902,-497.26 -91.604,-496.552C-98.01,-490.087 -104.495,-483.696 -110.753,-477.091C-112.971,-474.751 -114.632,-471.882 -116.574,-469.217C-106.763,-465.651 -97.458,-462.227 -88.122,-458.888C-78.883,-455.583 -69.545,-452.542 -60.376,-449.054C-51.35,-445.621 -41.418,-444.179 -33.834,-437.089C-39.22,-437.488 -44.348,-438.771 -49.283,-440.578C-71.426,-448.684 -93.512,-456.945 -115.625,-465.134C-118.348,-466.142 -120.495,-466.02 -122.441,-463.146C-126.423,-457.268 -131.034,-451.817 -135.06,-445.966C-139.237,-439.896 -143.029,-433.561 -147.416,-426.672C-144.081,-425.881 -141.729,-425.157 -139.324,-424.78C-126.508,-422.771 -113.678,-420.86 -100.855,-418.894C-86.397,-416.677 -71.934,-414.496 -57.499,-412.137C-55.595,-411.826 -53.848,-410.559 -52.028,-409.735C-52.202,-409.25 -52.377,-408.766 -52.552,-408.281C-53.828,-408.172 -55.134,-407.833 -56.377,-407.992C-64.456,-409.025 -72.528,-410.115 -80.588,-411.284C-102.467,-414.457 -124.351,-417.602 -146.199,-420.969C-149.269,-421.442 -150.72,-420.711 -151.962,-417.974C-155.312,-410.592 -159.104,-403.407 -162.364,-395.988C-165.199,-389.536 -167.549,-382.87 -170.457,-375.419C-162.919,-375.806 -156.337,-376.166 -149.753,-376.477C-138.621,-377.002 -127.484,-377.434 -116.355,-378.019C-99.596,-378.9 -82.843,-379.915 -66.082,-380.753C-64.562,-380.829 -62.999,-380.028 -61.455,-379.635C-61.478,-379.115 -61.5,-378.595 -61.523,-378.075C-63.176,-377.72 -64.814,-377.186 -66.486,-377.041C-75.102,-376.293 -83.717,-375.51 -92.348,-374.987C-117.569,-373.462 -142.792,-371.96 -168.028,-370.72C-171.153,-370.567 -172.357,-369.572 -173.257,-366.851C-178.311,-351.576 -180.134,-335.746 -181.57,-319.843C-181.623,-319.26 -181.243,-318.638 -180.971,-317.715C-179.357,-318.033 -177.899,-318.245 -176.482,-318.611C-161.199,-322.562 -145.988,-326.818 -130.625,-330.429C-114.703,-334.17 -98.64,-337.314 -82.629,-340.674C-76.571,-341.945 -70.49,-343.112 -64.407,-344.266C-63.82,-344.378 -63.091,-344.185 -62.529,-343.92C-58.847,-342.184 -54.598,-341.058 -51.667,-338.456C-47.252,-334.536 -45.3,-336.81 -42.147,-339.972C-36.209,-345.93 -30.492,-353.333 -20.138,-348.675C-19.412,-348.348 -17.577,-348.929 -17.223,-349.598C-15.63,-352.613 -14.091,-355.72 -13.077,-358.965C-10.897,-365.944 -6.519,-368.011 -0.325,-364.567C1.243,-363.694 2.767,-362.699 4.169,-361.583C6.516,-359.716 8.387,-359.532 10.493,-362.138C13.49,-365.847 17.134,-367.491 22.12,-365.483C24.578,-364.493 28.107,-363.623 30.164,-364.659C36.281,-367.74 38.423,-374.199 41.803,-379.92C37.791,-381.095 32.809,-381.055 31.542,-383.204C27.645,-389.819 24.037,-397.034 22.472,-404.469C21.041,-411.268 22.529,-418.658 22.464,-425.785C22.45,-427.314 21.29,-428.832 20.658,-430.355C19.423,-429.315 17.728,-428.517 17.031,-427.194C13.651,-420.775 10.759,-414.093 7.266,-407.74C4.074,-401.934 0.407,-396.49 -5.843,-393.204C-10.642,-390.681 -15.031,-387.387 -19.657,-384.525C-23.102,-382.395 -24.916,-379.347 -24.094,-375.414C-23.288,-371.558 -21.974,-367.78 -20.574,-364.085C-19.261,-360.618 -20.755,-358.092 -24.418,-357.592C-26.793,-357.268 -29.576,-356.925 -31.307,-355.521C-34.85,-352.645 -37.524,-348.679 -41.128,-345.904C-42.926,-344.52 -46.07,-344.184 -48.433,-344.535C-49.602,-344.709 -51.237,-347.542 -51.185,-349.124C-50.952,-356.209 -50.204,-363.278 -49.613,-370.351C-48.424,-384.585 -39.654,-394.874 -31.171,-405.212C-24.889,-412.868 -17.963,-419.996 -11.689,-427.659C-4.791,-436.085 -5.089,-451.198 -11.901,-459.64C-12.198,-460.009 -12.61,-460.309 -13.018,-460.562C-17.141,-463.118 -17.413,-464.939 -14.154,-468.286C-10.743,-471.79 -1.485,-471.364 3.055,-467.084C6.802,-463.552 10.122,-459.562 13.57,-455.722C17.916,-450.881 23.004,-447.196 29.4,-444.739C31.562,-449.494 32.801,-454.416 35.669,-458.054C41.329,-465.234 47.57,-472.042 54.201,-478.34C58.182,-482.122 63.375,-484.62 67.985,-487.751C75.238,-492.677 81.049,-499.372 89.475,-503.014C96.539,-506.068 100.826,-521.03 99.736,-530.111C98.81,-537.832 94.025,-542.431 88.857,-547.205C87.515,-548.445 86.244,-551.011 86.588,-552.614C88.174,-559.992 97.299,-563.28 103.523,-559.149C111.428,-553.902 117,-546.753 121.627,-538.558C125.105,-532.399 129.21,-526.561 133.402,-520.847C137.983,-514.6 142.961,-508.642 147.808,-502.591C152.23,-497.071 157.449,-493.172 166.513,-494.356C166.513,-498.948 167.486,-503.73 166.266,-507.865C164.742,-513.036 161.228,-517.59 158.952,-522.583C157.986,-524.701 157.599,-527.292 157.795,-529.594C157.849,-530.22 160.981,-530.601 162.708,-531.059C164.3,-531.481 165.886,-531.991 167.509,-532.216C169.26,-532.46 171.76,-533.212 172.707,-532.368C177.545,-528.052 183.532,-524.685 184.906,-517.309C185.677,-513.172 186.983,-508.848 189.191,-505.325C193.912,-497.795 199.755,-491.258 206.947,-485.666C213.268,-480.749 217.952,-473.778 224.011,-468.459C235.782,-458.126 245.553,-446.597 252.792,-432.456C259.153,-420.033 262.529,-407.513 260.542,-393.843C258.851,-382.218 257.809,-370.195 250.417,-360.338C248.866,-358.27 245.548,-356.048 243.32,-356.302C239.587,-356.728 234.921,-356.684 233.092,-361.841C231.739,-365.658 229.39,-369.115 227.574,-372.776C226.627,-374.684 225.873,-376.687 225.032,-378.647C227.312,-378.671 230.089,-379.538 231.771,-378.546C235.571,-376.308 237.284,-378.271 238.18,-381.151C239.098,-384.103 239.813,-387.453 239.353,-390.434C238.061,-398.816 236.547,-407.217 234.272,-415.374C232.878,-420.372 230.697,-425.554 227.497,-429.556C221.992,-436.441 215.639,-442.706 209.223,-448.789C202.798,-454.881 195.58,-460.146 189.278,-466.351C186.511,-469.075 184.721,-469.107 182.306,-466.806C176.751,-461.511 171.01,-456.378 165.839,-450.727C161.614,-446.109 157.816,-441.026 154.384,-435.786C152.343,-432.671 151.375,-428.851 149.771,-424.974C151.907,-424.501 152.704,-424.32 153.501,-424.148C161.422,-422.429 162.953,-417.617 157.744,-411.291C152.127,-404.468 145.706,-399.343 136.48,-398.084C129.566,-397.139 124.63,-398.797 121.872,-405.054C115.572,-419.343 117.707,-432.907 126.676,-445.291C133.355,-454.513 140.7,-463.252 148.16,-472.729M-293.841,-293.269C-293.146,-260.661 -290.162,-228.795 -282.452,-197.463C-274.67,-165.841 -264.08,-135.192 -248.722,-106.483C-239.816,-89.835 -229.624,-73.784 -218.905,-58.226C-209.569,-44.675 -200.182,-30.881 -186.537,-20.936C-185.757,-20.366 -184.942,-19.657 -184.513,-18.823C-179.077,-8.275 -170.273,-0.67 -161.517,6.815C-155.054,12.341 -147.603,16.697 -140.984,22.058C-135.002,26.903 -130.017,33.065 -123.756,37.456C-115.105,43.522 -105.931,48.99 -96.492,53.743C-88.359,57.837 -79.649,60.893 -70.986,63.786C-65.746,65.536 -60.132,66.235 -54.644,67.146C-51.385,67.688 -50.749,65.916 -50.615,62.741C-50.351,56.518 -49.521,50.286 -48.447,44.141C-47.405,38.177 -45.457,32.37 -44.457,26.401C-43.067,18.101 -42.186,9.715 -41.096,1.364C-40.403,-3.936 -39.702,-9.235 -39.082,-14.544C-39.013,-15.131 -39.463,-15.773 -39.648,-16.396C-40.591,-19.564 -41.896,-22.679 -42.379,-25.916C-43.159,-31.149 -44.852,-34.579 -50.74,-36.244C-58.129,-38.335 -65.123,-41.921 -72.159,-45.14C-77.986,-47.807 -83.857,-50.504 -89.3,-53.851C-99.47,-60.107 -108.524,-67.748 -116.586,-76.659C-122.553,-83.253 -129.433,-89.015 -135.511,-95.516C-141.14,-101.537 -146.418,-107.91 -151.526,-114.384C-155.931,-119.966 -160.343,-125.638 -163.917,-131.758C-168.873,-140.245 -173.28,-149.078 -177.489,-157.967C-181.419,-166.27 -185.767,-174.57 -188.182,-183.352C-192.479,-198.976 -195.697,-214.915 -198.879,-230.82C-200.418,-238.509 -201.146,-246.398 -201.704,-254.235C-202.267,-262.148 -202.24,-270.108 -202.33,-278.048C-202.415,-285.508 -202.769,-293.006 -202.184,-300.423C-201.381,-310.597 -199.37,-320.681 -198.682,-330.858C-198,-340.951 -197.087,-350.827 -194.134,-360.64C-190.132,-373.933 -187.652,-387.681 -183.741,-401.005C-180.859,-410.821 -176.98,-420.376 -173.045,-429.838C-171.236,-434.187 -168.282,-438.072 -165.748,-442.105C-158.342,-453.891 -151.649,-466.229 -143.223,-477.238C-135.757,-486.992 -126.498,-495.409 -117.731,-504.116C-112.541,-509.272 -106.955,-514.076 -101.225,-518.634C-89.813,-527.712 -78.217,-536.559 -66.623,-545.404C-61.062,-549.647 -55.741,-554.461 -49.597,-557.631C-35.267,-565.024 -20.702,-572.048 -5.846,-578.303C3.711,-582.327 13.792,-585.471 23.929,-587.665C38.468,-590.813 53.271,-592.74 67.963,-595.18C84.73,-597.965 101.649,-598.17 118.49,-596.831C127.802,-596.091 136.901,-592.983 146.203,-591.732C157.028,-590.275 167.908,-589.406 177.917,-584.497C178.357,-584.281 178.861,-584.194 179.332,-584.038C185.23,-582.07 191.288,-580.474 196.993,-578.051C207.314,-573.669 217.491,-568.93 227.604,-564.084C238.076,-559.066 248.621,-554.133 258.721,-548.434C267.049,-543.734 274.935,-538.19 282.721,-532.608C289.386,-527.83 295.818,-522.682 302.008,-517.3C307.909,-512.171 313.531,-506.691 318.979,-501.077C329.26,-490.483 339.79,-480.074 349.317,-468.828C355.259,-461.813 359.703,-453.494 364.544,-445.593C368.418,-439.27 371.908,-432.71 375.514,-426.226C379.206,-419.592 383.841,-413.27 386.273,-406.196C391.164,-391.971 394.923,-377.351 398.968,-362.844C400.524,-357.261 401.611,-351.546 402.866,-345.88C403.879,-341.3 405.316,-336.962 404.362,-331.918C403.705,-328.442 406.015,-324.514 406.169,-320.754C406.536,-311.856 406.228,-302.931 406.536,-294.028C406.784,-286.816 408.096,-279.607 407.914,-272.421C407.685,-263.398 407.387,-254.398 404.69,-245.478C401.645,-235.407 400.354,-224.82 397.852,-214.567C395.338,-204.268 393.324,-193.658 389.22,-183.977C381.8,-166.471 373.174,-149.463 364.657,-132.445C361.71,-126.559 357.712,-121.178 353.976,-115.715C349.895,-109.749 346.129,-103.422 341.225,-98.192C329.68,-85.88 317.722,-73.938 305.564,-62.227C299.416,-56.306 292.663,-50.957 285.838,-45.806C275.955,-38.347 267.101,-29.389 255.418,-24.468C252.029,-23.04 250.589,-20.619 252.142,-16.904C253.077,-14.668 254.404,-12.391 254.553,-10.067C255.145,-0.835 259.303,7.56 260.115,16.834C261.119,28.318 264.253,39.609 265.411,51.09C265.983,56.771 269.65,57.394 273.213,57.972C276.308,58.475 279.886,57.945 282.87,56.842C294.517,52.534 306.792,49.697 317.378,42.808C323.354,38.919 329.325,35.008 335.111,30.848C345.309,23.517 355.847,16.555 365.375,8.421C383.332,-6.907 399.012,-24.538 413.202,-43.364C430.089,-65.771 446.418,-88.634 458.251,-114.244C464.408,-127.569 471.788,-140.526 473.286,-155.603C473.421,-156.969 474.589,-158.25 475.341,-159.532C476.994,-162.352 479.428,-164.949 480.24,-167.985C484.857,-185.269 489.636,-202.542 493.251,-220.048C495.454,-230.713 495.956,-241.769 496.693,-252.685C497.823,-269.411 499.167,-286.166 499.202,-302.911C499.25,-325.995 494.816,-348.678 490.123,-371.166C487.785,-382.368 486.867,-394.108 480.525,-404.384C478.472,-407.709 479.004,-412.534 477.827,-416.517C476.087,-422.398 474.199,-428.276 471.795,-433.909C467.329,-444.374 462.566,-454.717 457.708,-465.008C449.211,-483.004 439.705,-500.472 428.038,-516.613C421.346,-525.87 413.874,-534.572 406.567,-543.37C402.909,-547.775 398.766,-551.774 394.986,-556.082C393.475,-557.804 392.624,-560.148 391.001,-561.726C382.572,-569.924 374.24,-578.254 365.39,-585.982C356.918,-593.38 348.058,-600.379 338.987,-607.034C330.611,-613.178 321.767,-618.692 313.055,-624.371C306.106,-628.901 299.318,-633.791 291.97,-637.572C281.262,-643.083 270.177,-647.879 259.138,-652.721C249.44,-656.976 239.706,-661.204 229.766,-664.842C218.827,-668.847 207.627,-671.978 195.852,-672.77C190.792,-673.109 185.225,-673.433 180.904,-675.699C171.585,-680.585 161.471,-680.737 151.611,-682.168C145.175,-683.103 138.494,-682.199 131.946,-682.557C128.013,-682.772 124.126,-684.401 120.218,-684.401C108.688,-684.402 97.144,-684.15 85.629,-683.539C73.71,-682.906 61.641,-682.715 49.955,-680.587C29.159,-676.8 8.543,-671.948 -12.025,-667.027C-20.389,-665.025 -28.636,-662.17 -36.582,-658.854C-64.651,-647.138 -92.377,-634.719 -117.937,-617.943C-142.916,-601.548 -165.431,-582.231 -185.925,-560.614C-197.227,-548.693 -206.732,-535.266 -216.546,-522.044C-228.065,-506.525 -239.006,-490.805 -248.039,-473.802C-262.165,-447.212 -272.915,-419.32 -281.058,-390.247C-290.011,-358.28 -293.159,-325.778 -293.841,-293.269M3.316,-172.579C13.292,-163.774 23.269,-154.968 33.747,-145.721C30.381,-155.776 26.378,-164.533 16.02,-168.558C13.109,-169.69 10.429,-171.421 7.505,-172.508C6.247,-172.976 4.639,-172.502 3.189,-172.455C-0.795,-178.529 -0.049,-181.217 6.249,-184.684C9.263,-186.342 11.963,-188.576 14.996,-190.193C17.206,-191.371 19.703,-192.041 22.115,-192.8C24.588,-193.579 27.906,-193.412 29.483,-195.011C36.556,-202.184 42.974,-209.609 53.842,-211.742C60.579,-213.064 65.093,-212.049 65.426,-205.82C65.909,-196.785 67.41,-188.073 70.812,-179.662C73.206,-173.743 74.783,-167.441 77.665,-161.79C80.404,-156.419 80.268,-154.119 74.917,-150.897C73.021,-149.755 71.336,-148.262 69.556,-146.929C71.264,-145.896 72.364,-145.701 73.168,-146.101C85.152,-152.074 97.876,-154.19 111.17,-153.993C116.261,-153.917 117.688,-156.807 115.158,-161.491C113.516,-164.533 113.077,-167.263 114.901,-170.404C115.778,-171.914 116.187,-173.837 116.325,-175.61C116.894,-182.9 117.841,-190.227 117.53,-197.493C117.319,-202.428 115.786,-207.507 113.866,-212.114C111.646,-217.443 113.297,-222.712 119.042,-223.458C131.536,-225.081 144.113,-226.847 156.304,-221.421C160.975,-219.341 162.851,-213.887 159.489,-210.147C149.25,-198.759 144.631,-184.9 141.483,-170.339C140.958,-167.913 140.677,-165.324 139.59,-163.159C138.459,-160.904 136.833,-158.528 134.779,-157.218C133.042,-156.111 130.383,-156.453 128.132,-156.153L128.112,-155.758C134.042,-155.15 139.972,-154.542 144.993,-154.026C145.995,-157.862 146.311,-161.208 147.722,-164.003C150.056,-168.625 153.041,-172.928 155.851,-177.3C159.314,-182.685 162.993,-187.934 166.363,-193.375C168.83,-197.358 171.534,-201.347 173.1,-205.704C176.18,-214.277 177.587,-215.49 186.002,-213.17C194.068,-210.945 199.854,-205.003 206,-199.876C209.08,-197.308 206.999,-194.61 204.126,-192.671C199.663,-189.655 195.323,-186.457 190.904,-183.374C178.413,-174.658 172.748,-160.824 164.632,-148.401C167.436,-147.161 170.144,-145.963 173.505,-144.476C171.59,-153.676 174.233,-159.821 182.264,-163.279C183.292,-163.721 184.146,-164.638 184.985,-165.437C195.684,-175.63 208.426,-182.492 222.031,-187.826C223.843,-188.537 226.984,-188.43 228.325,-187.298C232.583,-183.702 236.271,-179.433 240.198,-175.442C242.855,-172.742 243.373,-169.395 241.591,-166.381C239.771,-163.301 236.73,-162.179 232.745,-162.029C226.073,-161.78 218.523,-161.988 213.009,-158.965C203.849,-153.942 195.794,-146.766 187.739,-139.949C185.173,-137.778 180.824,-134.188 186.795,-130.221C187.295,-130.51 188.033,-130.7 188.388,-131.175C194.91,-139.895 203.704,-145.179 214.094,-147.791C221.772,-149.721 229.582,-151.115 237.307,-152.859C250.007,-155.728 252.43,-153.605 250.668,-140.997C250.553,-140.175 250.558,-139.336 250.506,-138.504C249.962,-129.853 249.962,-129.855 241.276,-129.912C240.945,-129.914 240.611,-129.866 240.282,-129.817C230.143,-128.303 219.975,-126.961 209.882,-125.188C205.688,-124.451 201.568,-123.023 197.579,-121.484C194.423,-120.267 191.519,-118.401 187.288,-116.188C186.022,-111.937 183.151,-106.839 176.799,-104.271C175.233,-103.637 174.253,-101.554 173.003,-100.137C174.709,-98.837 176.276,-97.259 178.16,-96.315C180.005,-95.39 183.022,-95.77 184.058,-94.438C189.488,-87.456 195.326,-80.562 199.34,-72.771C203.632,-64.441 208.164,-56.423 214.981,-50.119C218.923,-46.474 224.087,-44.149 228.702,-41.229C228.963,-41.672 229.225,-42.114 229.487,-42.557C228.41,-43.565 227.171,-44.449 226.286,-45.604C223.557,-49.159 224.625,-54.766 228.53,-55.594C238.053,-57.614 242.292,-65.663 247.178,-72.322C252.401,-79.44 255.201,-88.298 260.135,-95.676C265.78,-104.114 268.825,-113.436 270.873,-123C272.27,-129.527 271.333,-136.526 271.769,-143.293C272.715,-158.027 267.771,-171.407 261.977,-184.415C256.592,-196.506 244.811,-202.173 234.443,-208.952C228.563,-212.796 221.974,-215.557 215.703,-218.801C209.42,-222.05 203.4,-226.055 196.787,-228.355C187.774,-231.49 178.309,-233.325 169.038,-235.713C161.875,-237.558 154.794,-239.881 147.529,-241.114C138.182,-242.699 128.678,-244.332 119.256,-244.254C107.971,-244.162 96.701,-242.28 85.422,-241.191C81.494,-240.811 77.232,-241.341 73.684,-239.988C55.51,-233.056 35.556,-231.117 18.748,-220.382C10.53,-215.134 1.979,-210.364 -5.947,-204.713C-12.348,-200.148 -17.644,-193.997 -24.153,-189.628C-31.11,-184.957 -36.94,-179.45 -41.657,-172.67C-45.328,-167.391 -48.236,-161.473 -52.47,-156.717C-59.763,-148.525 -62.782,-138.61 -64.556,-128.419C-65.933,-120.516 -66.384,-112.137 -65.333,-104.224C-64.458,-97.625 -63.663,-89.841 -57.381,-85.521C-50.573,-80.838 -49.88,-74.745 -51.515,-67.694C-53.09,-60.9 -56.645,-59.668 -62.199,-64.078C-70.438,-70.62 -76.074,-79.495 -79.596,-88.956C-84.832,-103.022 -86.167,-117.968 -84.161,-134.011C-92.208,-123.06 -99.861,-112.728 -107.355,-102.282C-107.896,-101.528 -107.758,-99.416 -107.122,-98.848C-104.787,-96.765 -102.344,-94.101 -99.513,-93.407C-91.103,-91.346 -86.625,-85.385 -82.623,-78.562C-80.307,-74.613 -78.484,-69.941 -75.147,-67.132C-70.469,-63.195 -64.66,-60.553 -59.193,-57.621C-55.752,-55.776 -52.051,-54.415 -48.047,-52.651C-47.313,-65.69 -46.422,-77.557 -46.027,-89.44C-45.438,-107.202 -41.759,-124.155 -32.993,-139.687C-30.475,-144.15 -26.376,-147.694 -23.268,-151.858C-19.855,-156.43 -16.796,-161.264 -13.492,-165.92C-11.043,-169.371 -7.747,-169.508 -4.205,-167.859C-2.915,-167.258 -1.743,-166.403 -0.252,-165.504C0.76,-168.244 -2.363,-172.822 3.316,-172.579M123.541,34.75C124.758,36.551 125.935,38.38 127.205,40.142C128.161,41.47 129.236,42.712 130.258,43.991C128.831,44.693 127.458,45.8 125.962,46.007C123.519,46.346 120.995,46.099 118.505,46.097C114.342,42.479 116.125,38.392 117.729,34.449C119.099,31.078 117.83,29.674 114.547,29.666C104.81,29.642 95.809,26.105 86.487,24.255C76.714,22.314 66.068,23.004 56.851,28.788C56.571,28.964 56.31,29.204 56.003,29.296C47.754,31.769 39.593,34.62 31.228,36.606C12.938,40.95 -2.808,49.708 -16.634,62.33C-24.911,69.887 -30.823,79.254 -35.987,88.838C-38.329,93.183 -37.36,99.584 -37.085,105.012C-36.414,118.328 -33.105,131.156 -28.945,143.781C-26.067,152.516 -24.097,161.66 -20.24,169.931C-16.338,178.3 -10.395,185.692 -5.754,193.748C-1.745,200.708 1.418,208.155 5.441,215.105C11.42,225.433 17.906,235.465 24.029,245.711C29.036,254.091 34.35,262.273 35.156,272.55C35.577,277.925 38.432,283.184 38.435,288.498C38.438,295.875 37.471,303.42 35.705,310.594C32.816,322.334 29.042,333.863 25.43,345.415C24.492,348.416 22.905,351.755 18.959,351.139C16.415,350.741 13.272,349.701 11.816,347.839C9.53,344.915 10.893,341.631 13.389,338.855C18.223,333.479 19.037,326.476 19.776,319.836C20.834,310.334 20.771,300.709 21.227,291.138C21.728,280.578 17.232,271.37 12.982,262.245C5.42,246.015 -1.804,229.53 -10.738,214.058C-22.981,192.853 -33.614,171.102 -40.763,147.665C-42.83,140.886 -45.211,134.196 -47.684,127.553C-48.083,126.478 -50.028,124.94 -50.73,125.178C-58.688,127.867 -65.259,123.395 -72.106,121.06C-80.593,118.167 -88.963,114.81 -97.087,111.018C-102.443,108.519 -107.155,104.675 -112.383,101.855C-116.696,99.53 -121.384,97.912 -125.826,95.813C-128.204,94.689 -130.597,93.449 -132.668,91.853C-143.182,83.753 -153.697,75.649 -164.005,67.293C-172.481,60.422 -180.564,53.066 -189.012,46.159C-199.003,37.989 -208.669,29.564 -217.163,19.749C-238.383,-4.772 -259.119,-29.616 -274.667,-58.296C-282.974,-73.621 -292.191,-88.555 -299.188,-104.462C-306.318,-120.671 -311.711,-137.706 -316.99,-154.652C-324.071,-177.376 -328.186,-200.805 -331.428,-224.363C-332.943,-235.37 -335.104,-246.417 -335.201,-257.462C-335.383,-278.239 -335.249,-299.114 -333.432,-319.788C-331.69,-339.613 -327.828,-359.265 -324.581,-378.94C-317.998,-418.829 -301.934,-455.352 -283.212,-490.681C-273.966,-508.128 -263.251,-524.936 -251.814,-541.048C-235.81,-563.594 -216.857,-583.733 -196.889,-602.882C-189.607,-609.865 -183.003,-617.587 -175.442,-624.235C-168.102,-630.688 -159.902,-636.159 -152.137,-642.136C-149.66,-644.043 -147.591,-646.561 -144.947,-648.158C-134.618,-654.4 -123.988,-660.152 -113.739,-666.519C-95.995,-677.542 -76.995,-685.919 -57.436,-692.894C-30.475,-702.509 -2.752,-709.355 25.542,-713.96C53.011,-718.432 80.627,-721.436 108.424,-720.477C125.824,-719.877 143.193,-717.492 160.5,-715.309C192.645,-711.255 223.77,-702.896 253.823,-690.916C271.847,-683.731 289.697,-675.968 307.112,-667.419C339.921,-651.314 368.801,-629.644 394.068,-603.207C407.602,-589.046 421.169,-574.915 434.586,-560.643C440.934,-553.891 447.188,-547.024 453.067,-539.866C457.361,-534.638 461.353,-529.076 464.816,-523.267C474.01,-507.841 482.563,-492.029 491.913,-476.701C499.191,-464.768 504.437,-452.101 509.29,-439.033C518.859,-413.267 522.917,-386.363 527.878,-359.578C532.754,-333.255 533.752,-306.692 532.828,-280.123C531.986,-255.929 530.729,-231.608 527.263,-207.689C524.42,-188.064 519.109,-168.61 513.012,-149.686C504.293,-122.621 492.966,-96.502 477.638,-72.369C467.938,-57.097 458.154,-41.866 447.898,-26.968C442.656,-19.354 436.152,-12.62 430.469,-5.294C422.9,4.465 415.981,14.755 408.04,24.191C398.597,35.411 389.987,47.389 378.203,56.593C372.417,61.113 368.029,67.381 362.617,72.438C359.405,75.44 355.549,77.818 351.776,80.14C344.309,84.733 336.675,89.055 329.153,93.56C320.532,98.725 312.255,104.576 303.266,108.98C296.463,112.313 289.991,116.891 281.813,117.172C276.905,117.341 271.979,118.385 267.189,119.557C265.974,119.853 264.839,122.012 264.361,123.532C261.497,132.632 259.291,141.962 255.999,150.895C251.078,164.252 246.044,177.633 239.917,190.458C234.828,201.113 232.586,212.301 230.307,223.631C227.433,237.918 224.296,252.151 221.434,266.44C217.348,286.836 215.051,307.398 218.555,328.084C219.619,334.362 222.878,340.241 224.57,346.456C225.17,348.661 224.909,352.024 223.562,353.574C222.246,355.089 218.891,355.806 216.697,355.407C208.725,353.962 206.754,350.741 207.156,342.601C207.358,338.501 206.85,334.359 206.59,330.241C205.186,307.926 207.722,285.89 211.429,263.96C212.938,255.034 214.993,246.201 216.752,237.316C217.094,235.592 217.224,233.825 216.476,231.677C214.609,234.217 212.794,236.799 210.864,239.29C205.181,246.622 200.308,254.884 193.481,260.935C187.622,266.129 187.743,272.053 186.872,278.353C184.623,294.619 182.739,311.092 175.339,325.978C171.558,333.584 165.722,340.142 161.171,347.397C152.979,360.46 138.708,361.328 126.021,365.551C117.98,368.226 109.995,369.286 101.617,367.498C92.843,365.626 85.131,362.271 77.714,356.763C70.47,351.382 65.071,345.138 61.574,337.245C58.696,330.749 56.979,323.747 54.577,317.029C52.766,311.965 50.371,307.093 48.802,301.961C46.587,294.715 44.968,287.288 42.958,279.975C40.781,272.053 38.286,264.214 36.244,256.258C35.104,251.812 34.88,247.132 33.746,242.684C32.196,236.602 29.465,230.75 28.522,224.602C27.173,215.809 23.673,207.595 22.088,199.088C20.623,191.225 24.837,182.884 32.196,179.07C41.787,174.101 41.355,166.047 40.719,158.01C39.885,147.476 38.604,136.862 36.145,126.611C34.157,118.317 30.188,110.492 27.003,102.497C25.859,99.626 24.584,96.782 23.077,94.09C22.384,92.854 20.849,92.122 19.939,90.971C18.627,89.309 16.672,87.494 16.63,85.706C16.597,84.318 18.81,82.231 20.472,81.557C29.473,77.902 39.006,75.349 47.575,70.908C53.803,67.68 58.933,62.242 64.319,57.523C66.345,55.748 66.5,53.417 64.449,50.979C63.532,49.89 62.946,47.03 63.568,46.462C64.703,45.425 67.307,44.636 68.493,45.265C72.613,47.447 76.57,50.048 80.259,52.915C90.521,60.891 101.892,61.791 114.006,58.78C119.237,57.481 124.426,55.901 129.731,55.063C133.199,54.516 134.756,52.607 135.35,49.694C136.218,45.442 129.215,35.581 123.541,34.75" style="fill:rgb(101,53,8);fill-rule:nonzero;"/>
        </g>
        <g transform="matrix(1,0,0,1,529.307,110.418)">
            <path d="M0,-15.437C-4.968,-8.646 -9.771,-1.725 -15.017,4.845C-16.358,6.526 -19.713,8.49 -21.067,7.891C-24.2,6.507 -23.692,3.453 -21.77,0.771C-15.977,-7.312 -10.222,-15.421 -4.482,-23.541C-2.853,-25.848 -1.338,-28.234 0.251,-30.569C3.099,-34.755 6.755,-36.098 10.338,-33.984C14.263,-31.669 13.971,-27.922 12.898,-24.27C11.222,-18.559 9.275,-12.926 7.506,-7.241C7.233,-6.366 7.291,-5.388 7.071,-3.238C13.387,-8.421 18.716,-13.059 24.333,-17.315C28.371,-20.375 32.53,-23.537 37.123,-25.527C41.321,-27.346 44.942,-24.119 43.896,-19.583C43.078,-16.038 40.987,-12.629 38.866,-9.572C33.011,-1.133 26.792,7.053 20.83,15.418C18.85,18.197 16.769,20.661 13.25,18.185C9.413,15.485 11.835,12.752 13.754,10.156C17.546,5.025 21.308,-0.129 25.082,-5.273C24.686,-5.664 24.29,-6.055 23.894,-6.446C18.604,-2.02 13.298,2.387 8.031,6.84C6.135,8.444 4.515,10.466 2.419,11.709C1.098,12.493 -1.421,12.922 -2.408,12.182C-3.638,11.261 -4.654,8.812 -4.354,7.302C-2.875,-0.139 -0.929,-7.487 0.852,-14.868C0.568,-15.058 0.284,-15.248 0,-15.437" style="fill:rgb(101,53,8);fill-rule:nonzero;"/>
        </g>
        <g transform="matrix(1,0,0,1,747.871,304.947)">
            <path d="M0,-24.304C-6.6,-23.152 -13.177,-21.83 -19.812,-20.952C-21.786,-20.69 -23.924,-21.672 -25.985,-22.085C-25.231,-24.04 -24.949,-27.223 -23.638,-27.727C-19.268,-29.407 -14.57,-30.376 -9.921,-31.159C-0.942,-32.671 8.145,-33.59 17.07,-35.346C20.394,-36.001 22.674,-36.192 23.695,-32.618C24.729,-29.005 24.503,-25.843 20.538,-23.747C14.368,-20.485 8.357,-16.92 2.293,-13.46C1.63,-13.082 1.056,-12.547 -0.908,-11.073C6.055,-10.295 11.56,-9.711 17.057,-9.058C21.824,-8.491 26.6,-7.951 31.336,-7.181C32.92,-6.924 34.769,-6.361 35.83,-5.282C37.436,-3.649 39.678,-1.234 39.388,0.464C39.096,2.184 36.255,4.193 34.178,4.741C29.057,6.095 23.736,6.7 18.492,7.578C11.109,8.813 3.724,10.028 -3.663,11.233C-4.646,11.394 -5.911,11.888 -6.584,11.475C-8.495,10.302 -10.167,8.74 -11.933,7.332C-10.421,5.858 -9.13,3.542 -7.354,3.077C-3.053,1.952 1.48,1.72 5.909,1.058C7.326,0.846 8.711,0.414 10.216,-1.15C6.005,-1.795 1.804,-2.512 -2.419,-3.061C-5.546,-3.468 -8.742,-3.425 -11.833,-3.991C-16.777,-4.895 -18.17,-8.584 -14.477,-12.114C-11.082,-15.357 -6.77,-17.642 -2.845,-20.325C-1.779,-21.053 -0.651,-21.689 0.448,-22.368C0.299,-23.013 0.149,-23.658 0,-24.304" style="fill:rgb(101,53,8);fill-rule:nonzero;"/>
        </g>
        <g transform="matrix(1,0,0,1,97.4764,323.148)">
            <path d="M0,6.594C5.6,-3.269 5.549,-8.832 0.004,-15.151C-2.602,-18.12 -4.934,-17.751 -6.013,-13.957C-7.056,-10.288 -7.498,-6.448 -8.551,-2.783C-9.468,0.408 -8.219,2.377 -5.66,3.829C-3.935,4.809 -2.092,5.582 0,6.594M-3.164,-25.495C2.121,-25.558 8.24,-21.508 9.774,-15.56C11.347,-9.466 14.692,-7.198 20.667,-7.209C23.773,-7.216 26.881,-6.241 29.991,-5.732C32.905,-5.255 35.042,-3.467 33.923,-0.699C33.217,1.045 30.491,2.969 28.607,3.037C24.344,3.193 20.048,1.99 15.751,1.876C13.995,1.829 10.905,2.871 10.661,3.933C9.825,7.561 7.449,11.857 11.913,14.872C15.87,17.547 20.003,19.963 24.09,22.441C26.465,23.88 28.755,25.379 27.285,28.663C25.723,32.152 23.031,31.348 20.603,29.915C13.248,25.577 5.945,21.146 -1.305,16.633C-5.373,14.1 -9.229,11.225 -13.308,8.709C-16.673,6.633 -18.229,4.093 -17.252,0.003C-16.101,-4.823 -15.507,-9.781 -14.367,-14.611C-12.742,-21.488 -8.519,-25.431 -3.164,-25.495" style="fill:rgb(101,53,8);fill-rule:nonzero;"/>
        </g>
        <g transform="matrix(1,0,0,1,378.034,94.3631)">
            <path d="M0,-14.402C0.549,-14.001 1.84,-12.289 2.904,-12.421C6.81,-12.903 10.967,-13.35 14.393,-15.075C16.959,-16.367 19.056,-19.344 20.43,-22.046C21.833,-24.803 20.944,-27.562 16.983,-26.965C13.742,-26.478 10.608,-25.313 7.398,-24.569C1.312,-23.16 0.082,-21.746 0,-14.402M-11.653,12.438C-10.094,-0.41 -8.701,-13.282 -6.794,-26.077C-6.505,-28.017 -4.11,-30.616 -2.194,-31.158C3.832,-32.863 10.101,-33.7 16.263,-34.936C21.015,-35.89 25.26,-35.349 27.949,-30.787C30.894,-25.79 30.713,-19.285 27.107,-16.304C17.667,-8.5 21.987,-0.013 24.065,8.453C24.938,12.011 24.416,13.962 20.841,14.698C17.026,15.484 16.211,13.304 15.595,9.983C14.762,5.5 13.08,1.173 11.713,-3.206C11.579,-3.635 11.171,-4.081 10.771,-4.31C7.452,-6.211 -2.014,-1.695 -2.444,2.165C-2.922,6.446 -3.196,10.774 -3.164,15.079C-3.137,18.617 -4.305,21.488 -7.907,21.021C-9.272,20.845 -10.259,17.14 -11.241,14.964C-11.553,14.274 -11.29,13.325 -11.29,12.494C-11.411,12.475 -11.532,12.456 -11.653,12.438" style="fill:rgb(101,53,8);fill-rule:nonzero;"/>
        </g>
        <g transform="matrix(1,0,0,1,230.685,133.796)">
            <path d="M0,39.029C-0.844,36.205 -2.124,34.106 -1.901,32.181C-1.525,28.933 1.183,28.436 4.144,28.601C5.028,28.65 6.762,27.55 6.777,26.945C6.981,18.541 8.146,9.768 1.95,2.824C0.646,1.363 -3.14,0.486 -4.776,1.318C-7.562,2.734 -10.13,5.372 -11.769,8.109C-17.604,17.851 -14.879,27.74 -10.533,36.955C-7.896,42.544 -3.315,42.663 0,39.029M15.25,20.586C14.995,22.919 14.907,25.232 14.457,27.472C13.821,30.64 13.381,33.359 16.279,36.055C18.677,38.287 16.661,41.444 12.712,42.929C9.572,44.112 6.431,45.496 3.622,47.306C-1.225,50.429 -6.738,51.063 -11.289,47.89C-26.951,36.97 -27.009,6.226 -10.798,-4.601C0.332,-12.034 8.637,-5.03 12.881,6.371C14.52,10.773 14.503,15.792 15.25,20.586" style="fill:rgb(101,53,8);fill-rule:nonzero;"/>
        </g>
        <g transform="matrix(1,0,0,1,790.878,432.32)">
            <path d="M0,-14.776C-5.185,-16.156 -10.353,-17.608 -15.56,-18.896C-20.854,-20.205 -26.149,-21.585 -31.521,-22.482C-34.613,-22.998 -37.979,-23.725 -36.726,-27.19C-36.031,-29.11 -31.718,-31.356 -29.639,-30.87C-17.416,-28.014 -5.33,-24.533 6.697,-20.913C8.959,-20.233 12.104,-18.18 12.38,-16.383C12.671,-14.479 10.524,-11.196 8.567,-10.146C3.115,-7.221 -2.763,-5.071 -8.529,-2.759C-11.175,-1.698 -13.954,-0.973 -16.672,-0.096C-16.642,0.492 -16.611,1.08 -16.58,1.668C-7.579,3.977 1.444,6.21 10.407,8.66C12.313,9.181 14.27,10.223 15.65,11.584C16.178,12.104 15.544,15.036 14.76,15.397C13.049,16.186 10.782,16.58 8.954,16.176C-3.175,13.491 -15.299,10.744 -27.306,7.565C-30.374,6.752 -34.063,4.944 -35.564,2.449C-37.199,-0.267 -32.898,-4.232 -27.77,-5.542C-20.052,-7.513 -12.324,-9.449 -4.614,-11.451C-3.083,-11.848 -1.611,-12.472 -0.112,-12.992C-0.075,-13.587 -0.038,-14.181 0,-14.776" style="fill:rgb(101,53,8);fill-rule:nonzero;"/>
        </g>
        <g transform="matrix(1,0,0,1,689.034,203.364)">
            <path d="M0,-17.398C2.493,-14.752 4.787,-12.386 6.998,-9.945C8.809,-7.947 10.854,-5.772 8.249,-3.106C5.83,-0.628 3.501,-1.85 1.253,-3.749C-0.767,-5.455 -2.891,-7.057 -5.086,-8.531C-10.435,-12.122 -13.626,-11.845 -18.619,-7.735C-20.833,-5.912 -20.81,-4.363 -18.697,-2.45C-15.021,0.882 -11.292,4.197 -7.986,7.879C-6.842,9.154 -6.891,11.5 -6.394,13.357C-8.52,13.573 -11.393,14.782 -12.646,13.839C-19.662,8.56 -26.461,2.952 -32.957,-2.958C-35.498,-5.27 -35.322,-8.33 -31.756,-10.292C-18.984,-17.316 -6.309,-24.525 6.634,-31.219C8.491,-32.18 12.252,-31.531 14.04,-30.181C20.199,-25.528 26.042,-20.409 31.604,-15.052C32.858,-13.844 32.494,-10.956 32.875,-8.842C30.577,-8.898 27.751,-8.119 26.085,-9.172C21.786,-11.892 18.151,-15.638 13.973,-18.578C7.791,-22.928 6.517,-22.713 0,-17.398" style="fill:rgb(101,53,8);fill-rule:nonzero;"/>
        </g>
        <g transform="matrix(1,0,0,1,119.801,268.657)">
            <path d="M0,2.988C1.603,-0.504 2.65,-3.928 4.645,-6.658C5.678,-8.073 8.392,-8.259 10.346,-9C10.866,-7.104 12.118,-5.049 11.749,-3.345C11.057,-0.15 9.802,3.072 8.093,5.861C5.958,9.344 7.02,11.817 9.525,14.208C11.604,16.193 13.793,18.064 16.486,20.483C19.173,14.961 21.542,10.083 23.922,5.21C24.432,4.165 24.725,2.71 25.573,2.2C27.088,1.29 28.95,0.955 30.667,0.379C31.194,2.222 32.649,4.427 32.095,5.848C29.096,13.532 25.708,21.073 22.237,28.562C19.969,33.456 17.606,33.952 13.561,30.207C3.945,21.304 -5.496,12.214 -14.992,3.183C-18.432,-0.088 -18.973,-3.564 -16.693,-7.997C-13.595,-14.021 -11.221,-20.414 -8.393,-26.583C-7.729,-28.032 -6.739,-29.723 -5.437,-30.37C-4.242,-30.964 -1.993,-30.831 -1.001,-30.033C-0.055,-29.273 0.542,-27.006 0.124,-25.808C-1.618,-20.806 -3.694,-15.912 -5.845,-11.065C-9.106,-3.714 -8.022,-0.787 0,2.988" style="fill:rgb(101,53,8);fill-rule:nonzero;"/>
        </g>
        <g transform="matrix(1,0,0,1,321.152,96.9157)">
            <path d="M0,14.582C4.517,12.725 7.871,11.473 11.084,9.93C11.845,9.564 12.751,8.029 12.544,7.353C10.863,1.861 8.933,-3.554 7.078,-8.992C6.409,-8.885 5.74,-8.777 5.071,-8.669C3.472,-1.337 1.873,5.996 0,14.582M-12.08,32.202C-10.171,23.087 -8.57,15.135 -6.828,7.215C-5.126,-0.523 -3.109,-8.195 -1.556,-15.961C-0.537,-21.056 3.391,-21.271 7.143,-21.774C10.881,-22.275 12.334,-19.698 13.422,-16.633C17.036,-6.45 20.751,3.696 24.426,13.857C24.596,14.326 24.854,14.789 24.904,15.272C25.191,18.055 27.856,21.264 24.357,23.469C20.908,25.643 18.585,22.992 16.196,20.769C15.318,19.952 13.515,19.358 12.429,19.675C8.139,20.929 3.9,22.431 -0.205,24.196C-1.273,24.655 -2.044,26.313 -2.486,27.582C-2.966,28.965 -2.45,30.831 -3.182,31.958C-4.385,33.815 -6.243,35.247 -7.825,36.857C-9.36,35.178 -10.895,33.498 -12.08,32.202" style="fill:rgb(101,53,8);fill-rule:nonzero;"/>
        </g>
        <g transform="matrix(1,0,0,1,717.794,222.416)">
            <path d="M0,25.541C2.909,24.632 5.889,23.898 8.715,22.779C16.263,19.79 23.793,16.746 31.223,13.479C33.544,12.458 35.788,11.939 36.462,14.615C36.939,16.51 36.433,19.936 35.145,20.752C31.154,23.281 26.7,25.241 22.205,26.775C14.906,29.267 7.558,32.084 -0.002,33.22C-8.57,34.508 -15.439,29.793 -20.384,23.107C-24.961,16.917 -22.755,7.923 -15.854,4.787C-5.752,0.195 4.63,-3.788 14.96,-7.86C17.768,-8.967 20.279,-8.241 21.256,-4.937C22.497,-0.735 19.104,0.257 16.468,1.352C8.673,4.587 0.733,7.475 -7.062,10.71C-10.059,11.953 -13.82,13.255 -12.849,17.611C-11.882,21.942 -8.425,23.954 -4.234,24.665C-2.939,24.884 -1.596,24.819 -0.273,24.885C-0.183,25.104 -0.092,25.322 0,25.541" style="fill:rgb(101,53,8);fill-rule:nonzero;"/>
        </g>
        <g transform="matrix(1,0,0,1,649.887,178.821)">
            <path d="M0,-45.157C6.633,-45.268 12.844,-43.692 16.702,-38.053C18.699,-35.133 19.482,-31.13 19.893,-27.512C20.04,-26.214 17.482,-24.608 16.159,-23.143C14.7,-24.504 12.347,-25.637 11.934,-27.263C10.056,-34.669 4.367,-38.407 -3.175,-36.599C-7.24,-35.625 -8.356,-32.33 -5.642,-29.163C-4.893,-28.288 -3.957,-27.569 -3.08,-26.809C0.71,-23.528 3.973,-19.705 2.464,-14.406C0.628,-7.962 -3.88,-3.776 -10.459,-1.848C-17.144,0.111 -23.214,-1.093 -29.039,-4.673C-34.222,-7.858 -37.042,-15.615 -34.302,-20.707C-33.587,-22.034 -31.318,-23.299 -29.863,-23.194C-28.825,-23.12 -26.947,-20.502 -27.179,-19.377C-28.287,-14.01 -25.3,-11.337 -21.106,-10.01C-16.112,-8.429 -11.006,-9.393 -7.324,-13.177C-6.239,-14.291 -6.854,-17.733 -7.615,-19.761C-8.259,-21.472 -10.285,-22.641 -11.625,-24.117C-14.725,-27.532 -17.49,-31.368 -15.819,-36.143C-14.034,-41.248 -9.706,-43.845 -4.487,-44.831C-3.024,-45.107 -1.5,-45.055 0,-45.157" style="fill:rgb(101,53,8);fill-rule:nonzero;"/>
        </g>
        <g transform="matrix(1,0,0,1,778.027,554.883)">
            <path d="M0,20.934C0.425,32.122 -6.793,38.544 -17.84,35.111C-19.559,34.577 -21.676,31.793 -21.666,30.059C-21.652,27.498 -19.587,26.024 -16.305,26.723C-10.769,27.901 -9.605,26.867 -8.702,21.34C-6.94,10.562 -18.113,-4.951 -28.824,-6.598C-33.416,-7.304 -37.207,-4.476 -37.079,0.395C-36.993,3.682 -35.793,7.022 -34.638,10.172C-33.674,12.802 -32.484,15.401 -35.259,17.306C-38.251,19.361 -39.942,17.209 -41.612,14.786C-47.015,6.944 -46.911,-3.76 -41.333,-11.326C-36.699,-17.61 -27.866,-17.362 -21.248,-13.713C-8.455,-6.659 0.014,4.04 0,20.934" style="fill:rgb(101,53,8);fill-rule:nonzero;"/>
        </g>
        <g transform="matrix(1,0,0,1,583.525,111.489)">
            <path d="M0,31.29C4.558,28.634 9.43,26.923 12.723,23.632C18.797,17.563 23.944,10.567 29.477,3.957C29.583,3.829 29.661,3.677 29.772,3.554C31.768,1.343 33.677,-1.694 37.105,1.176C40.255,3.813 37.935,6.399 36.229,8.515C31.227,14.722 25.705,20.531 20.98,26.934C16.079,33.578 9.537,36.686 1.752,38.091C-5.712,39.439 -16.637,32.663 -16.632,25.999C-16.63,22.706 -15.623,18.843 -13.714,16.229C-8.268,8.773 -2.316,1.652 3.876,-5.203C5.45,-6.946 8.663,-7.207 11.124,-8.149C10.527,-5.787 10.543,-2.99 9.228,-1.14C4.186,5.953 -1.422,12.643 -6.49,19.717C-7.66,21.35 -8.613,24.68 -7.764,25.877C-6.24,28.024 -3.271,29.145 0,31.29" style="fill:rgb(101,53,8);fill-rule:nonzero;"/>
        </g>
        <g transform="matrix(1,0,0,1,285.487,117.497)">
            <path d="M0,9.529C-1.842,2.223 -3.53,-4.354 -5.147,-10.948C-5.859,-13.851 -6.489,-16.78 -7.041,-19.719C-7.565,-22.509 -6.919,-24.735 -3.647,-25.174C-0.655,-25.576 0.245,-23.849 0.877,-21.183C2.819,-12.987 4.949,-4.83 7.227,3.28C9.942,12.95 5.196,29.625 -6.369,33.115C-12.96,35.105 -19.783,32.991 -21.678,26.427C-24.82,15.541 -26.843,4.32 -29,-6.825C-29.265,-8.197 -27.463,-9.969 -26.62,-11.555C-25.163,-10.057 -22.858,-8.783 -22.394,-7.024C-20.079,1.743 -18.292,10.648 -16.221,19.481C-15.499,22.562 -14.554,26.635 -10.679,25.778C-7.72,25.123 -4.476,22.482 -2.876,19.814C-1.004,16.693 -0.779,12.584 0,9.529" style="fill:rgb(101,53,8);fill-rule:nonzero;"/>
        </g>
        <g transform="matrix(1,0,0,1,128.521,575.807)">
            <path d="M0,15.557C2.99,14.59 7.27,13.703 11.075,11.845C15.667,9.603 16.341,5.356 12.659,1.597C10.317,-0.795 6.76,-1.953 4.171,-4.161C2.678,-5.435 2.028,-7.697 0.999,-9.515C3.098,-10.228 5.542,-12.006 7.235,-11.459C12.951,-9.61 17.892,-6.319 21.014,-0.846C24.767,5.733 22.535,14.06 16.221,18.335C2.592,27.563 -20.413,22.648 -29.375,11.852C-34.383,5.817 -34.249,-2.791 -28.498,-7.167C-27.108,-8.224 -25.226,-9.197 -23.582,-9.176C-22.302,-9.16 -20.788,-7.73 -19.907,-6.536C-19.592,-6.109 -20.574,-4.236 -21.399,-3.535C-26.311,0.639 -26.458,3.679 -21.942,8.235C-16.2,14.027 -8.676,14.441 0,15.557" style="fill:rgb(101,53,8);fill-rule:nonzero;"/>
        </g>
        <g transform="matrix(1,0,0,1,84.5833,420.095)">
            <path d="M0,11.068C-4.206,3.938 -7.846,-2.51 -11.78,-8.774C-13.39,-11.337 -14.417,-13.54 -11.38,-15.52C-8.57,-17.351 -6.727,-15.741 -5.238,-13.39C-1.606,-7.658 1.708,-1.685 5.791,3.706C8.31,7.033 11.783,9.782 15.226,12.23C19.656,15.38 24.666,17.724 29.035,20.945C30.388,21.942 30.469,24.666 31.132,26.599C29.047,27.049 26.609,28.419 24.942,27.779C19.865,25.83 15.143,22.978 10.16,20.75C8.281,19.909 6.043,19.356 4.013,19.467C-1.437,19.767 -6.855,20.767 -12.301,20.904C-14.151,20.95 -16.044,19.247 -17.918,18.342C-16.588,16.731 -15.545,14.221 -13.872,13.688C-9.828,12.398 -5.489,12.03 0,11.068" style="fill:rgb(101,53,8);fill-rule:nonzero;"/>
        </g>
        <g transform="matrix(1,0,0,1,77.7933,473.26)">
            <path d="M0,14.949C0,17.206 -0.03,19.008 0.007,20.808C0.061,23.427 -0.042,26.101 -3.412,26.411C-6.726,26.717 -7.513,24.284 -7.82,21.583C-8.661,14.175 -9.545,6.772 -10.371,-0.638C-10.628,-2.946 -11.342,-5.433 -10.754,-7.532C-10.288,-9.194 -8.335,-11.072 -6.682,-11.518C-5.759,-11.768 -2.812,-9.094 -2.969,-8.073C-5.005,5.219 4.782,5.53 13.411,7.483C21.472,9.307 29.417,11.641 37.452,13.59C40.636,14.362 43.103,15.969 41.9,19.302C40.695,22.64 37.625,21.909 34.648,21.143C25.988,18.914 17.276,16.862 8.524,15.031C5.995,14.501 3.262,14.949 0,14.949" style="fill:rgb(101,53,8);fill-rule:nonzero;"/>
        </g>
        <g transform="matrix(1,0,0,1,436.711,91.2595)">
            <path d="M0,-13.921C5.321,-19.626 9.841,-24.609 14.538,-29.42C15.873,-30.788 17.613,-32.213 19.374,-32.556C20.611,-32.798 22.893,-31.573 23.425,-30.414C23.932,-29.311 23.195,-27.089 22.266,-25.978C19.5,-22.673 16.552,-19.471 13.344,-16.598C7.448,-11.316 2.752,-5.401 0.676,2.443C-0.379,6.433 -2.201,10.213 -3.44,14.162C-4.279,16.834 -5.387,18.877 -8.601,17.979C-12.035,17.019 -12.789,14.374 -11.883,11.343C-10.7,7.387 -8.815,3.617 -7.896,-0.385C-7.189,-3.456 -6.902,-6.882 -7.504,-9.938C-8.611,-15.556 -10.69,-20.977 -11.955,-26.572C-12.274,-27.983 -11.049,-29.744 -10.533,-31.344C-8.778,-30.412 -6.142,-29.91 -5.435,-28.464C-3.357,-24.221 -2.047,-19.603 0,-13.921" style="fill:rgb(101,53,8);fill-rule:nonzero;"/>
        </g>
        <g transform="matrix(1,0,0,1,223.574,681.796)">
            <path d="M0,-2.672C1.685,-4.17 3.149,-6.221 5.118,-7.005C6.929,-7.726 10.769,-7.714 11.105,-6.92C11.965,-4.894 12.354,-0.959 11.188,-0.067C4.639,4.944 -2.346,9.411 -9.4,13.708C-10.478,14.366 -13.187,13.687 -14.223,12.68C-15.206,11.726 -15.51,9.415 -15.182,7.905C-14.462,4.598 -13.153,1.419 -11.557,-3.407C-15.107,-1.235 -17.312,0.278 -19.664,1.51C-22.398,2.942 -25.62,5.317 -28.014,1.581C-30.465,-2.245 -26.922,-4.087 -24.327,-5.765C-19.073,-9.163 -13.834,-12.635 -8.301,-15.526C-6.278,-16.583 -2.929,-17.038 -1.091,-16.062C1.708,-14.575 2.146,-11.306 0.744,-8.141C0.049,-6.574 -0.44,-4.916 -1.022,-3.299C-0.682,-3.09 -0.341,-2.881 0,-2.672" style="fill:rgb(101,53,8);fill-rule:nonzero;"/>
        </g>
        <g transform="matrix(1,0,0,1,275.338,723.939)">
            <path d="M0,-7.553C0.546,-5.741 1.096,-4.913 0.936,-4.259C0.498,-2.472 0.217,-0.213 -1.004,0.809C-1.965,1.614 -4.361,1.229 -5.891,0.704C-8.025,-0.029 -9.946,-1.383 -11.958,-2.471C-12.27,-2.014 -12.582,-1.558 -12.894,-1.101C-11.794,-0.092 -10.796,1.065 -9.577,1.895C-6.676,3.871 -4.522,6.598 -6.71,9.715C-8.677,12.517 -11.724,11.178 -14.17,9.277C-17.779,6.472 -21.593,3.907 -25.026,0.904C-27.76,-1.488 -26.347,-4.064 -24.073,-5.808C-19.225,-9.526 -14.191,-13 -9.199,-16.527C-5.352,-19.243 -1.471,-20.07 2.688,-16.942C5.721,-14.66 9.203,-12.936 12.058,-10.469C14.203,-8.615 16.821,-6.087 13.987,-2.888C11.25,0.202 8.616,-0.706 5.99,-3.502C4.616,-4.966 2.605,-5.833 0,-7.553" style="fill:rgb(101,53,8);fill-rule:nonzero;"/>
        </g>
        <g transform="matrix(1,0,0,1,783.707,509.099)">
            <path d="M0,-6.396C3.443,-0.566 6.429,4.463 9.385,9.51C10.387,11.221 11.705,12.883 12.147,14.742C12.483,16.155 12.14,18.697 11.24,19.2C10.05,19.865 7.531,19.605 6.469,18.702C4.925,17.39 4.014,15.223 3.107,13.291C-3.24,-0.241 -13.943,-9.551 -26.395,-17.121C-28.999,-18.704 -30.929,-20.389 -28.903,-23.383C-26.957,-26.261 -24.34,-26.078 -21.589,-24.142C-18.344,-21.858 -14.697,-20.073 -11.719,-17.501C-7.894,-14.196 -3.846,-14.021 0.825,-14.667C5.543,-15.319 10.372,-15.403 15.141,-15.283C16.298,-15.254 17.41,-13.447 18.544,-12.458C17.371,-11.317 16.368,-9.506 14.995,-9.159C10.53,-8.03 5.931,-7.438 0,-6.396" style="fill:rgb(101,53,8);fill-rule:nonzero;"/>
        </g>
        <g transform="matrix(1,0,0,1,182.605,235.813)">
            <path d="M0,-9.915C-1.807,-6.704 -3.237,-3.949 -4.865,-1.316C-7.827,3.475 -10.902,8.195 -13.937,12.94C-17.081,17.854 -20.012,18.397 -23.636,13.709C-29.879,5.635 -35.556,-2.878 -41.414,-11.247C-43.106,-13.665 -44.423,-16.362 -46.245,-18.668C-48.178,-21.116 -49.722,-23.229 -46.477,-25.776C-43.245,-28.312 -41.292,-26.381 -39.585,-23.867C-34.668,-16.625 -29.956,-9.239 -24.907,-2.091C-19.47,5.606 -19.36,5.504 -14.127,-2.155C-11.88,-5.444 -9.71,-8.811 -7.16,-11.853C-6.302,-12.876 -4.225,-13.644 -2.982,-13.352C-1.838,-13.082 -1.067,-11.231 0,-9.915" style="fill:rgb(101,53,8);fill-rule:nonzero;"/>
        </g>
        <g transform="matrix(1,0,0,1,644.722,682.847)">
            <path d="M0,16.858C3.95,12.38 4.436,4.646 0.882,0.968C0.14,0.2 -2.748,0.073 -3.213,0.705C-6.176,4.732 -4.405,13.309 0,16.858M-14.372,7.33C-12.84,3.316 -11.661,-0.995 -9.613,-4.843C-6.795,-10.14 -1.005,-11.526 3.935,-8.022C13.597,-1.167 14.577,14.203 7.042,22.391C1.528,28.384 -6.449,26.391 -10.752,18.248C-12.407,15.116 -13.047,11.447 -14.372,7.33" style="fill:rgb(101,53,8);fill-rule:nonzero;"/>
        </g>
        <g transform="matrix(1,0,0,1,674.814,667.141)">
            <path d="M0,1.655C-0.458,-0.046 -1.012,-2.79 -1.948,-5.396C-2.933,-8.135 -4.428,-8.226 -6.041,-5.719C-8.723,-1.553 -8.565,2.745 -6.393,6.951C-5.823,8.052 -4.111,9.437 -3.201,9.26C-2.12,9.051 -1.107,7.41 -0.501,6.176C-0.025,5.207 -0.212,3.913 0,1.655M8.517,5.38C7.07,8.385 5.924,12.668 3.332,15.724C-0.821,20.621 -6.505,20.298 -11.166,15.906C-18.036,9.432 -18.264,-6.895 -11.416,-13.45C-5.652,-18.966 2.608,-18.242 5.805,-9.111C7.261,-4.953 7.489,-0.366 8.517,5.38" style="fill:rgb(101,53,8);fill-rule:nonzero;"/>
        </g>
        <g transform="matrix(1,0,0,1,621.982,709.482)">
            <path d="M0,9.753C2.808,8.391 3.99,7.34 5.155,7.359C7.062,7.392 8.957,8.12 10.856,8.555C10.301,10.19 10.211,12.317 9.101,13.365C5.863,16.42 2.388,19.296 -1.312,21.769C-5.586,24.625 -9.238,22.482 -9.382,17.307C-9.437,15.32 -9.326,13.315 -9.102,11.34C-8.771,8.432 -8.194,5.557 -12.507,5.174C-13.197,5.113 -13.953,4.348 -14.446,3.725C-16.744,0.82 -15.337,-7.153 -11.901,-11.066C-9.251,-14.086 -3.524,-14.872 0.255,-12.735C4.638,-10.256 6,-6.201 4.205,-0.807C3.629,0.924 2.95,2.622 2.28,4.319C1.727,5.721 1.116,7.101 0,9.753" style="fill:rgb(101,53,8);fill-rule:nonzero;"/>
        </g>
        <g transform="matrix(1,0,0,1,693.905,646.196)">
            <path d="M0,2.043C-7.964,0.524 -9.752,-3.228 -6.542,-10.498C-4.32,-15.528 -0.141,-17.587 4.903,-17.885C10.462,-18.213 14.015,-13.984 12.892,-8.521C12,-4.182 10.636,0.06 9.381,4.721C10.39,4.272 11.337,3.522 12.31,3.488C14.092,3.423 15.889,3.781 17.68,3.962C17.345,5.803 17.614,8.172 16.557,9.378C13.962,12.338 10.863,14.897 7.768,17.367C4.145,20.256 0.084,18.729 -0.848,14.158C-1.239,12.235 -1.219,10.182 -1.078,8.21C-0.938,6.245 -0.414,4.308 0,2.043" style="fill:rgb(101,53,8);fill-rule:nonzero;"/>
        </g>
        <g transform="matrix(1,0,0,1,249.854,701.911)">
            <path d="M0,-4.702C-5.473,-6.993 -9.687,-4.435 -13.844,-2.082C-14.628,-1.638 -15.381,-0.026 -15.162,0.777C-14.928,1.633 -13.599,2.563 -12.611,2.754C-11.017,3.064 -9.136,2.345 -7.699,2.899C-6.244,3.458 -4.442,4.875 -4.153,6.211C-3.864,7.55 -4.906,10.257 -5.969,10.626C-11.289,12.479 -16.596,11.39 -21.175,8.389C-24.766,6.035 -25.046,1.786 -24.333,-1.981C-23.208,-7.922 -18.648,-11.26 -13.397,-13.196C-7.727,-15.288 -2.057,-17.181 4.09,-13.292C8.364,-10.588 10.042,-7.394 9.797,-2.676C9.629,0.563 8.086,2.86 4.891,3.284C1.248,3.768 0.729,0.763 0.182,-1.883C0.017,-2.681 0.068,-3.523 0,-4.702" style="fill:rgb(101,53,8);fill-rule:nonzero;"/>
        </g>
        <g transform="matrix(1,0,0,1,175.796,649.098)">
            <path d="M0,-7.084C0.362,-6.036 0.63,-4.944 1.101,-3.948C4.813,3.905 0.764,9.969 -7.953,9.567C-17.264,9.139 -20.135,7.176 -21.639,-0.193C-21.949,-1.715 -21.929,-3.728 -21.157,-4.937C-20.24,-6.372 -18.345,-7.182 -16.875,-8.262C-15.813,-6.808 -14.165,-5.484 -13.806,-3.874C-12.911,0.136 -12.793,0.453 -7.704,0.379C-7.747,-0.243 -7.555,-1.035 -7.866,-1.425C-10.775,-5.073 -11.438,-8.95 -8.616,-12.808C-5.511,-17.053 -0.885,-16.987 3.615,-16.043C8.721,-14.973 13.231,-9.438 12.463,-5.097C12.155,-3.357 10.466,-1.863 9.405,-0.257C7.701,-1.469 5.825,-2.506 4.346,-3.95C3.171,-5.096 2.481,-6.74 1.576,-8.164L0,-7.084Z" style="fill:rgb(101,53,8);fill-rule:nonzero;"/>
        </g>
        <g transform="matrix(1,0,0,1,86.2161,540.942)">
            <path d="M0,-12.99C14.384,-11.607 27.601,-10.409 40.796,-9.005C43.422,-8.726 46.38,-7.855 45.753,-4.171C45.218,-1.032 42.879,0.108 39.835,-0.182C32.934,-0.841 26.037,-1.54 19.137,-2.206C12.892,-2.809 6.613,-3.172 0.414,-4.082C-2.184,-4.463 -6.294,-3.81 -6.169,-8.332C-6.038,-13.098 -1.848,-12.435 0,-12.99" style="fill:rgb(101,53,8);fill-rule:nonzero;"/>
        </g>
        <g transform="matrix(1,0,0,1,178.689,207.694)">
            <path d="M0,-46.072C0.57,-45.587 2.054,-44.879 2.672,-43.712C9.4,-31.008 16.086,-18.279 22.482,-5.405C23.155,-4.051 21.896,-1.738 21.533,0.131C19.595,-0.662 16.689,-0.904 15.873,-2.337C9.241,-13.971 2.878,-25.765 -3.298,-37.65C-5.812,-42.487 -4.462,-46.203 0,-46.072" style="fill:rgb(101,53,8);fill-rule:nonzero;"/>
        </g>
        <g transform="matrix(1,0,0,1,180.562,652.153)">
            <path d="M0,21.447C-1.086,20.675 -3.183,19.949 -3.624,18.659C-4.082,17.322 -3.47,14.644 -2.401,13.921C4.44,9.295 11.43,4.853 18.638,0.831C20.126,0 23.665,0.428 24.646,1.613C26.629,4.006 25.289,6.41 22.581,8.123C16.345,12.068 10.254,16.241 4.043,20.228C3.118,20.822 1.865,20.905 0,21.447" style="fill:rgb(101,53,8);fill-rule:nonzero;"/>
        </g>
        <g transform="matrix(1,0,0,1,766.772,337.11)">
            <path d="M0,16.264C-5.731,14.079 -10.773,12.591 -15.325,10.176C-16.812,9.387 -17.021,6.188 -17.815,4.091C-15.612,3.849 -13.072,2.803 -11.285,3.552C-8.496,4.721 -6.21,5.293 -4.096,2.933C-1.532,0.072 1.586,0 3.61,2.596C5.414,4.908 6.819,8.475 6.438,11.217C6.183,13.057 2.506,14.422 0,16.264" style="fill:rgb(101,53,8);fill-rule:nonzero;"/>
        </g>
        <g transform="matrix(1,0,0,1,429.259,512.051)">
            <path d="M0,37.152C0.729,35.363 1.114,34.837 1.139,34.294C1.67,22.761 2.197,11.228 2.588,-0.31C2.619,-1.231 1.616,-3.015 1.168,-2.991C-2.022,-2.823 -5.575,-2.99 -8.198,-1.559C-9.409,-0.898 -9.303,3.205 -8.873,5.581C-8.354,8.446 -6.603,11.066 -5.833,13.913C-3.861,21.204 -2.136,28.562 0,37.152M-8.07,43.186C-10.717,33.03 -13.316,22.861 -16.076,12.736C-16.391,11.579 -17.446,10.469 -18.429,9.672C-26.643,3.013 -25.571,-6.036 -16.49,-11.306C-8.917,-15.702 -1.044,-17.005 7.363,-15.834C13.476,-14.982 17.164,-7.778 14.278,-2.25C7.671,10.407 8.46,23.605 10.989,36.978C11.39,39.096 12.127,41.156 12.451,43.283C13.246,48.502 11.452,51.089 6.242,50.957C2.389,50.86 -0.315,54.157 -4.986,52.779C-9.078,51.572 -9.649,50.296 -9.354,46.971C-9.251,45.818 -9.338,44.647 -9.338,43.485C-8.916,43.385 -8.493,43.285 -8.07,43.186" style="fill:rgb(101,53,8);fill-rule:nonzero;"/>
        </g>
        <g transform="matrix(1,0,0,1,544.833,620.286)">
            <path d="M0,-7.937C8.001,-5.854 14.809,-4.083 21.458,-2.352C23.081,-5.258 24.399,-7.618 26.012,-10.503C16.976,-13.174 9.132,-9.879 0,-7.937M-2.354,5.334C-3.017,5.378 -3.682,5.414 -4.344,5.47C-13.784,6.271 -15.623,5.565 -18.236,-3.02C-18.953,-5.375 -16.948,-10.645 -15.019,-11.346C-7.937,-13.919 -2.176,-19.787 5.94,-19.743C14.176,-19.699 22.417,-20.098 30.646,-19.903C34.861,-19.803 36.981,-16.266 38.127,-12.844C39.259,-9.465 37.091,-7.3 34.236,-5.134C31.939,-3.391 30.367,-0.185 29.382,2.685C26.188,11.979 25.25,12.161 16.446,9.327C10.357,7.367 4.035,6.135 -2.183,4.579C-2.24,4.83 -2.297,5.082 -2.354,5.334" style="fill:rgb(101,53,8);fill-rule:nonzero;"/>
        </g>
        <g transform="matrix(1,0,0,1,554.519,645.459)">
            <path d="M0,0.666C-6.327,-1.431 -12.155,-3.137 -17.771,-5.377C-19.223,-5.956 -20.72,-8.111 -20.943,-9.717C-21.376,-12.808 -18.788,-12.995 -16.54,-12.688C-9.847,-11.771 -3.093,-11.074 3.485,-9.605C7.718,-8.66 10.418,-5.502 9.474,-0.737C8.372,4.822 6.897,10.401 1.083,13.022C-0.335,13.661 -2.28,13.128 -3.983,13.134C-3.883,11.791 -4.059,10.35 -3.624,9.124C-2.698,6.508 -1.457,4.004 0,0.666" style="fill:rgb(101,53,8);fill-rule:nonzero;"/>
        </g>
        <g transform="matrix(1,0,0,1,406.789,389.178)">
            <path d="M0,-11.285C5.579,-3.177 6.526,-3.115 11.117,-10.358C7.718,-13.077 4.344,-14.615 0,-11.285M5.208,-22.34C10.643,-19.665 16.708,-17.14 22.261,-13.772C25.523,-11.794 24.901,-7.304 21.261,-5.896C15.199,-3.553 12.568,0.961 10.783,6.798C10.232,8.599 7.46,10.02 5.397,10.849C4.885,11.055 2.758,8.451 2.093,6.841C0.167,2.183 -1.492,-2.207 -7.67,-2.924C-9.866,-3.179 -13.758,-6.512 -13.551,-6.986C-11.875,-10.816 -10.056,-15.062 -6.992,-17.665C-4.184,-20.052 0.229,-20.552 5.208,-22.34" style="fill:rgb(101,53,8);fill-rule:nonzero;"/>
        </g>
        <g transform="matrix(1,0,0,1,463.168,399.869)">
            <path d="M0,-32.086C9.871,-31.611 15.477,-27.603 19.679,-21.765C22.39,-17.999 19.812,-14.974 15.747,-12.657C12.191,-10.629 9.961,-6.303 7.087,-3.044C6.067,-1.887 4.855,0 3.77,-0.026C2.38,-0.06 0.199,-1.429 -0.195,-2.678C-1.956,-8.259 -4.756,-12.732 -9.581,-16.347C-12.329,-18.406 -13.598,-22.135 -9.773,-25.036C-6.077,-27.839 -2.25,-30.47 0,-32.086" style="fill:rgb(101,53,8);fill-rule:nonzero;"/>
        </g>
        <g transform="matrix(1,0,0,1,584.592,400.617)">
            <path d="M0,5.867C-0.137,6.599 -0.194,7.088 -0.319,7.558C-0.96,9.965 -13.081,20.32 -15.542,20.576C-17.861,20.819 -22.237,15.344 -22.69,12.13C-23.077,9.384 -23.609,6.549 -24.715,4.034C-27.479,-2.248 -25.797,-7 -19.549,-9.669C-17.006,-10.756 -14.546,-12.036 -12.043,-13.216C-8.356,-14.952 -5.084,-13.727 -3.886,-10.314C-2.035,-5.043 -1.213,0.59 0,5.867" style="fill:rgb(101,53,8);fill-rule:nonzero;"/>
        </g>
        <g transform="matrix(1,0,0,1,538.271,389.887)">
            <path d="M0,2.146C-1.494,3.908 -2.494,5.334 -3.736,6.503C-6.903,9.484 -10.104,12.44 -13.447,15.219C-14.762,16.311 -16.594,17.666 -17.997,17.476C-19.06,17.333 -20.295,15.032 -20.626,13.512C-21.937,7.478 -23.532,1.868 -29.735,-1.279C-30.566,-1.701 -30.836,-5.399 -29.985,-6.614C-24.49,-14.46 -10.64,-15.52 -4.472,-8.326C-2.177,-5.649 -1.518,-1.57 0,2.146" style="fill:rgb(101,53,8);fill-rule:nonzero;"/>
        </g>
        <g transform="matrix(1,0,0,1,359.661,397.533)">
            <path d="M0,-6.789C-0.269,-7.191 -0.537,-7.593 -0.805,-7.996L-7.162,-5.804C-7.199,-5.371 -7.236,-4.936 -7.273,-4.502C-5.985,-3.845 -4.208,-2.318 -3.512,-2.71C-2.042,-3.538 -1.137,-5.369 0,-6.789M-19.63,0.443C-18.159,-8.729 -12.672,-12.553 -6.486,-15.577C-0.391,-18.557 4.887,-16.913 9.614,-12.279C11.914,-10.023 12.119,-7.891 9.766,-5.959C5.018,-2.06 2.115,2.573 2.186,8.928C2.197,9.922 0.857,11.768 0.146,11.766C-1.483,11.762 -3.968,11.337 -4.584,10.234C-6.811,6.246 -9.833,5.212 -14.241,5.006C-16.314,4.909 -18.242,1.696 -19.63,0.443" style="fill:rgb(101,53,8);fill-rule:nonzero;"/>
        </g>
        <g transform="matrix(1,0,0,1,307.202,417.837)">
            <path d="M0,-12.023C-0.038,-11.251 -0.077,-10.479 -0.115,-9.706C2.214,-9.206 4.562,-8.285 6.864,-8.388C7.975,-8.438 9,-10.412 10.065,-11.516C9.779,-12.064 9.494,-12.612 9.208,-13.16C6.139,-12.781 3.069,-12.402 0,-12.023M10.965,-20.546C12.587,-20.175 14.241,-19.939 15.797,-19.414C19.622,-18.123 20.711,-14.984 18.381,-11.765C14.948,-7.023 11.624,-2.399 12.464,4.067C12.638,5.4 10.537,7.03 9.484,8.523C8.199,7.419 6.417,6.565 5.713,5.168C2.474,-1.258 0.017,-3.01 -6.951,-2.568C-10.73,-2.328 -11.733,-3.785 -10.86,-7.31C-9.18,-14.095 -3.878,-18.666 3.085,-19.299C5.706,-19.538 8.295,-20.114 10.965,-20.546" style="fill:rgb(101,53,8);fill-rule:nonzero;"/>
        </g>
        <g transform="matrix(1,0,0,1,597.34,413.178)">
            <path d="M0,9.073C-0.894,5.829 -1.94,2.616 -2.611,-0.674C-2.907,-2.13 -3,-4.148 -2.226,-5.212C1.129,-9.817 9.361,-9.305 12.521,-4.517C18.14,3.996 17.977,5.442 10.661,13.105C9.753,14.056 9.189,15.518 8.118,16.09C6.081,17.177 3.379,18.89 1.733,18.271C0.293,17.728 -0.205,14.382 -0.857,12.196C-1.117,11.325 -0.673,10.245 -0.55,9.261C-0.366,9.198 -0.184,9.135 0,9.073" style="fill:rgb(101,53,8);fill-rule:nonzero;"/>
        </g>
    </g>
</svg>
